  0
SECTION
  2
HEADER
  9
$ACADVER
  1
AC1015
  9
$ACADMAINTVER
 70
     6
  9
$DWGCODEPAGE
  3
ANSI_1252
  9
$INSBASE
 10
0.0
 20
0.0
 30
0.0
  9
$EXTMIN
 10
-149.222790895
 20
4631.4262077845
 30
0.0
  9
$EXTMAX
 10
20.6160097425
 20
4824.4814480688
 30
0.0
  9
$LIMMIN
 10
0.0
 20
0.0
  9
$LIMMAX
 10
420.0
 20
297.0
  9
$ORTHOMODE
 70
     0
  9
$REGENMODE
 70
     1
  9
$FILLMODE
 70
     1
  9
$QTEXTMODE
 70
     0
  9
$MIRRTEXT
 70
     1
  9
$LTSCALE
 40
1.0
  9
$ATTMODE
 70
     1
  9
$TEXTSIZE
 40
3.5
  9
$TRACEWID
 40
1.0
  9
$TEXTSTYLE
  7
Standard
  9
$CLAYER
  8
0
  9
$CELTYPE
  6
ByLayer
  9
$CECOLOR
 62
   256
  9
$CELTSCALE
 40
1.0
  9
$DISPSILH
 70
     0
  9
$DIMSCALE
 40
1.0
  9
$DIMASZ
 40
3.302
  9
$DIMEXO
 40
1.0
  9
$DIMDLI
 40
3.75
  9
$DIMRND
 40
0.0
  9
$DIMDLE
 40
0.0
  9
$DIMEXE
 40
1.0
  9
$DIMTP
 40
0.0
  9
$DIMTM
 40
0.0
  9
$DIMTXT
 40
3.5
  9
$DIMCEN
 40
2.5
  9
$DIMTSZ
 40
0.0
  9
$DIMTOL
 70
     0
  9
$DIMLIM
 70
     0
  9
$DIMTIH
 70
     1
  9
$DIMTOH
 70
     1
  9
$DIMSE1
 70
     0
  9
$DIMSE2
 70
     0
  9
$DIMTAD
 70
     1
  9
$DIMZIN
 70
     1
  9
$DIMBLK
  1

  9
$DIMASO
 70
     1
  9
$DIMSHO
 70
     1
  9
$DIMPOST
  1

  9
$DIMAPOST
  1

  9
$DIMALT
 70
     0
  9
$DIMALTD
 70
     3
  9
$DIMALTF
 40
0.0393700787
  9
$DIMLFAC
 40
1.0
  9
$DIMTOFL
 70
     1
  9
$DIMTVP
 40
0.0
  9
$DIMTIX
 70
     0
  9
$DIMSOXD
 70
     0
  9
$DIMSAH
 70
     0
  9
$DIMBLK1
  1

  9
$DIMBLK2
  1

  9
$DIMSTYLE
  2
ISO-25
  9
$DIMCLRD
 70
     0
  9
$DIMCLRE
 70
     0
  9
$DIMCLRT
 70
     0
  9
$DIMTFAC
 40
1.0
  9
$DIMGAP
 40
1.524
  9
$DIMJUST
 70
     0
  9
$DIMSD1
 70
     0
  9
$DIMSD2
 70
     0
  9
$DIMTOLJ
 70
     0
  9
$DIMTZIN
 70
     1
  9
$DIMALTZ
 70
     0
  9
$DIMALTTZ
 70
     0
  9
$DIMUPT
 70
     0
  9
$DIMDEC
 70
     2
  9
$DIMTDEC
 70
     2
  9
$DIMALTU
 70
     2
  9
$DIMALTTD
 70
     3
  9
$DIMTXSTY
  7
Standard
  9
$DIMAUNIT
 70
     0
  9
$DIMADEC
 70
     2
  9
$DIMALTRND
 40
0.0
  9
$DIMAZIN
 70
     0
  9
$DIMDSEP
 70
    44
  9
$DIMATFIT
 70
     3
  9
$DIMFRAC
 70
     0
  9
$DIMLDRBLK
  1

  9
$DIMLUNIT
 70
     2
  9
$DIMLWD
 70
    -2
  9
$DIMLWE
 70
    -2
  9
$DIMTMOVE
 70
     0
  9
$LUNITS
 70
     2
  9
$LUPREC
 70
     2
  9
$SKETCHINC
 40
1.0
  9
$FILLETRAD
 40
10.0
  9
$AUNITS
 70
     0
  9
$AUPREC
 70
     2
  9
$MENU
  1
.
  9
$ELEVATION
 40
0.0
  9
$PELEVATION
 40
0.0
  9
$THICKNESS
 40
0.0
  9
$LIMCHECK
 70
     0
  9
$CHAMFERA
 40
0.0
  9
$CHAMFERB
 40
0.0
  9
$CHAMFERC
 40
0.0
  9
$CHAMFERD
 40
0.0
  9
$SKPOLY
 70
     0
  9
$TDCREATE
 40
2458927.872450683
  9
$TDUCREATE
 40
2458927.789117349
  9
$TDUPDATE
 40
2458927.87247816
  9
$TDUUPDATE
 40
2458927.789144827
  9
$TDINDWG
 40
0.0000000116
  9
$TDUSRTIMER
 40
0.0000000116
  9
$USRTIMER
 70
     1
  9
$ANGBASE
 50
0.0
  9
$ANGDIR
 70
     0
  9
$PDMODE
 70
     0
  9
$PDSIZE
 40
-1.0
  9
$PLINEWID
 40
0.0
  9
$SPLFRAME
 70
     0
  9
$SPLINETYPE
 70
     6
  9
$SPLINESEGS
 70
     8
  9
$HANDSEED
  5
27A
  9
$SURFTAB1
 70
     6
  9
$SURFTAB2
 70
     6
  9
$SURFTYPE
 70
     6
  9
$SURFU
 70
     6
  9
$SURFV
 70
     6
  9
$UCSBASE
  2

  9
$UCSNAME
  2

  9
$UCSORG
 10
0.0
 20
0.0
 30
0.0
  9
$UCSXDIR
 10
1.0
 20
0.0
 30
0.0
  9
$UCSYDIR
 10
0.0
 20
1.0
 30
0.0
  9
$UCSORTHOREF
  2

  9
$UCSORTHOVIEW
 70
     0
  9
$UCSORGTOP
 10
0.0
 20
0.0
 30
0.0
  9
$UCSORGBOTTOM
 10
0.0
 20
0.0
 30
0.0
  9
$UCSORGLEFT
 10
0.0
 20
0.0
 30
0.0
  9
$UCSORGRIGHT
 10
0.0
 20
0.0
 30
0.0
  9
$UCSORGFRONT
 10
0.0
 20
0.0
 30
0.0
  9
$UCSORGBACK
 10
0.0
 20
0.0
 30
0.0
  9
$PUCSBASE
  2

  9
$PUCSNAME
  2

  9
$PUCSORG
 10
0.0
 20
0.0
 30
0.0
  9
$PUCSXDIR
 10
1.0
 20
0.0
 30
0.0
  9
$PUCSYDIR
 10
0.0
 20
1.0
 30
0.0
  9
$PUCSORTHOREF
  2

  9
$PUCSORTHOVIEW
 70
     0
  9
$PUCSORGTOP
 10
0.0
 20
0.0
 30
0.0
  9
$PUCSORGBOTTOM
 10
0.0
 20
0.0
 30
0.0
  9
$PUCSORGLEFT
 10
0.0
 20
0.0
 30
0.0
  9
$PUCSORGRIGHT
 10
0.0
 20
0.0
 30
0.0
  9
$PUCSORGFRONT
 10
0.0
 20
0.0
 30
0.0
  9
$PUCSORGBACK
 10
0.0
 20
0.0
 30
0.0
  9
$USERI1
 70
     0
  9
$USERI2
 70
     0
  9
$USERI3
 70
     0
  9
$USERI4
 70
     0
  9
$USERI5
 70
     0
  9
$USERR1
 40
0.0
  9
$USERR2
 40
0.0
  9
$USERR3
 40
0.0
  9
$USERR4
 40
0.0
  9
$USERR5
 40
0.0
  9
$WORLDVIEW
 70
     1
  9
$SHADEDGE
 70
     3
  9
$SHADEDIF
 70
    70
  9
$TILEMODE
 70
     1
  9
$MAXACTVP
 70
    64
  9
$PINSBASE
 10
0.0
 20
0.0
 30
0.0
  9
$PLIMCHECK
 70
     0
  9
$PEXTMIN
 10
1.0000000000E+20
 20
1.0000000000E+20
 30
1.0000000000E+20
  9
$PEXTMAX
 10
-1.0000000000E+20
 20
-1.0000000000E+20
 30
-1.0000000000E+20
  9
$PLIMMIN
 10
0.0
 20
0.0
  9
$PLIMMAX
 10
420.0
 20
297.0
  9
$UNITMODE
 70
     0
  9
$VISRETAIN
 70
     1
  9
$PLINEGEN
 70
     0
  9
$PSLTSCALE
 70
     1
  9
$TREEDEPTH
 70
  3020
  9
$CMLSTYLE
  2
Standard
  9
$CMLJUST
 70
     0
  9
$CMLSCALE
 40
20.0
  9
$PROXYGRAPHICS
 70
     1
  9
$MEASUREMENT
 70
     1
  9
$CELWEIGHT
370
    -1
  9
$ENDCAPS
280
     0
  9
$JOINSTYLE
280
     0
  9
$LWDISPLAY
290
     1
  9
$INSUNITS
 70
     4
  9
$HYPERLINKBASE
  1

  9
$STYLESHEET
  1

  9
$XEDIT
290
     1
  9
$CEPSNTYPE
380
     0
  9
$PSTYLEMODE
290
     1
  9
$FINGERPRINTGUID
  2
{400656cd-f96d-4b64-b2e3-6dc24b7701b3}
  9
$VERSIONGUID
  2
{FAEB1C32-E019-11D5-929B-00C0DF256EC4}
  9
$EXTNAMES
290
     1
  9
$PSVPSCALE
 40
0.0
  9
$OLESTARTUP
290
     0
  0
ENDSEC
  0
SECTION
  2
CLASSES
  0
CLASS
  1
ACDBDICTIONARYWDFLT
  2
AcDbDictionaryWithDefault
  3
ObjectDBX Classes
 90
        0
280
     0
281
     0
  0
CLASS
  1
VISUALSTYLE
  2
AcDbVisualStyle
  3
ObjectDBX Classes
 90
     4095
280
     0
281
     0
  0
CLASS
  1
MATERIAL
  2
AcDbMaterial
  3
ObjectDBX Classes
 90
     1153
280
     0
281
     0
  0
CLASS
  1
SCALE
  2
AcDbScale
  3
ObjectDBX Classes
 90
     1153
280
     0
281
     0
  0
CLASS
  1
TABLESTYLE
  2
AcDbTableStyle
  3
ObjectDBX Classes
 90
     4095
280
     0
281
     0
  0
CLASS
  1
MLEADERSTYLE
  2
AcDbMLeaderStyle
  3
ACDB_MLEADERSTYLE_CLASS
 90
     4095
280
     0
281
     0
  0
CLASS
  1
SUN
  2
AcDbSun
  3
SCENEOE
 90
     1153
280
     0
281
     0
  0
CLASS
  1
ACDBPLACEHOLDER
  2
AcDbPlaceHolder
  3
ObjectDBX Classes
 90
        0
280
     0
281
     0
  0
CLASS
  1
LAYOUT
  2
AcDbLayout
  3
ObjectDBX Classes
 90
        0
280
     0
281
     0
  0
ENDSEC
  0
SECTION
  2
TABLES
  0
TABLE
  2
VPORT
  5
8
330
0
100
AcDbSymbolTable
 70
     1
  0
VPORT
  5
29
330
8
100
AcDbSymbolTableRecord
100
AcDbViewportTableRecord
  2
*Active
 70
     0
 10
0.0
 20
0.0
 11
1.0
 21
1.0
 12
-64.3033905763
 22
4727.9538279267
 13
0.0
 23
0.0
 14
10.0
 24
10.0
 15
10.0
 25
10.0
 16
0.0
 26
0.0
 36
1.0
 17
0.0
 27
0.0
 37
0.0
 40
196.91634509
 41
0.8797419867
 42
50.0
 43
0.0
 44
0.0
 50
0.0
 51
0.0
 71
     0
 72
   100
 73
     1
 74
     3
 75
     0
 76
     0
 77
     0
 78
     0
281
     0
 65
     1
110
0.0
120
0.0
130
0.0
111
1.0
121
0.0
131
0.0
112
0.0
122
1.0
132
0.0
 79
     0
146
0.0
  0
ENDTAB
  0
TABLE
  2
LTYPE
  5
5
330
0
100
AcDbSymbolTable
 70
     6
  0
LTYPE
  5
14
330
5
100
AcDbSymbolTableRecord
100
AcDbLinetypeTableRecord
  2
ByBlock
 70
     0
  3

 72
    65
 73
     0
 40
0.0
  0
LTYPE
  5
15
330
5
100
AcDbSymbolTableRecord
100
AcDbLinetypeTableRecord
  2
ByLayer
 70
     0
  3

 72
    65
 73
     0
 40
0.0
  0
LTYPE
  5
16
330
5
100
AcDbSymbolTableRecord
100
AcDbLinetypeTableRecord
  2
Continuous
 70
     0
  3
Solid line
 72
    65
 73
     0
 40
0.0
  0
LTYPE
  5
6E
330
5
100
AcDbSymbolTableRecord
100
AcDbLinetypeTableRecord
  2
HIDDEN
 70
     0
  3
Hidden __ __ __ __ __ __ __ __ __ __ __ __ __ __
 72
    65
 73
     2
 40
1.905
 49
1.27
 74
     0
 49
-0.635
 74
     0
  0
LTYPE
  5
6F
330
5
100
AcDbSymbolTableRecord
100
AcDbLinetypeTableRecord
  2
PHANTOM
 70
     0
  3
Phantom ______  __  __  ______  __  __  ______
 72
    65
 73
     6
 40
12.7
 49
6.35
 74
     0
 49
-1.27
 74
     0
 49
1.27
 74
     0
 49
-1.27
 74
     0
 49
1.27
 74
     0
 49
-1.27
 74
     0
  0
LTYPE
  5
70
330
5
100
AcDbSymbolTableRecord
100
AcDbLinetypeTableRecord
  2
CENTER
 70
     0
  3
Center ____ _ ____ _ ____ _ ____ _ ____ _ ____
 72
    65
 73
     4
 40
10.16
 49
6.35
 74
     0
 49
-1.27
 74
     0
 49
1.27
 74
     0
 49
-1.27
 74
     0
  0
LTYPE
  5
71
330
5
100
AcDbSymbolTableRecord
100
AcDbLinetypeTableRecord
  2
CENTERX2
 70
     0
  3
Center (2x) ________  __  ________  __  _____
 72
    65
 73
     4
 40
20.32
 49
12.7
 74
     0
 49
-2.54
 74
     0
 49
2.54
 74
     0
 49
-2.54
 74
     0
  0
LTYPE
  5
72
330
5
100
AcDbSymbolTableRecord
100
AcDbLinetypeTableRecord
  2
DOT2
 70
     0
  3
Dot (.5x) ........................................
 72
    65
 73
     2
 40
0.635
 49
0.0
 74
     0
 49
-0.635
 74
     0
  0
ENDTAB
  0
TABLE
  2
LAYER
  5
2
330
0
100
AcDbSymbolTable
 70
     1
  0
LAYER
  5
10
330
2
100
AcDbSymbolTableRecord
100
AcDbLayerTableRecord
  2
0
 70
     0
 62
     7
  6
Continuous
370
    -3
390
F
  0
ENDTAB
  0
TABLE
  2
STYLE
  5
3
330
0
100
AcDbSymbolTable
 70
     2
  0
STYLE
  5
11
330
3
100
AcDbSymbolTableRecord
100
AcDbTextStyleTableRecord
  2
Standard
 70
     0
 40
0.0
 41
1.0
 50
0.0
 71
     0
 42
3.5
  3
txt
  4

  0
STYLE
  5
277
330
3
100
AcDbSymbolTableRecord
100
AcDbTextStyleTableRecord
  2
SLDTEXTSTYLE0
 70
     0
 40
0.0
 41
0.7
 50
0.0
 71
     0
 42
3.5
  3
TXT
  4

  0
ENDTAB
  0
TABLE
  2
VIEW
  5
6
330
0
100
AcDbSymbolTable
 70
     0
  0
ENDTAB
  0
TABLE
  2
UCS
  5
7
330
0
100
AcDbSymbolTable
 70
     0
  0
ENDTAB
  0
TABLE
  2
APPID
  5
9
330
0
100
AcDbSymbolTable
 70
     1
  0
APPID
  5
12
330
9
100
AcDbSymbolTableRecord
100
AcDbRegAppTableRecord
  2
ACAD
 70
     0
  0
ENDTAB
  0
TABLE
  2
DIMSTYLE
  5
A
330
0
100
AcDbSymbolTable
 70
     1
100
AcDbDimStyleTable
  0
DIMSTYLE
105
27
330
A
100
AcDbSymbolTableRecord
100
AcDbDimStyleTableRecord
  2
ISO-25
 70
     0
 41
2.5
 42
0.625
 43
3.75
 44
1.25
 73
     0
 74
     0
 77
     1
 78
     8
140
2.5
141
2.5
143
0.0393700787
147
0.625
171
     3
172
     1
178
     0
271
     2
272
     2
274
     3
278
    44
283
     0
284
     8
340
11
  0
ENDTAB
  0
TABLE
  2
BLOCK_RECORD
  5
1
330
0
100
AcDbSymbolTable
 70
     1
  0
BLOCK_RECORD
  5
1F
330
1
100
AcDbSymbolTableRecord
100
AcDbBlockTableRecord
  2
*Model_Space
340
22
  0
BLOCK_RECORD
  5
1B
330
1
100
AcDbSymbolTableRecord
100
AcDbBlockTableRecord
  2
*Paper_Space
340
1E
  0
BLOCK_RECORD
  5
23
330
1
100
AcDbSymbolTableRecord
100
AcDbBlockTableRecord
  2
*Paper_Space0
340
26
  0
ENDTAB
  0
ENDSEC
  0
SECTION
  2
BLOCKS
  0
BLOCK
  5
20
330
1F
100
AcDbEntity
  8
0
100
AcDbBlockBegin
  2
*Model_Space
 70
     0
 10
0.0
 20
0.0
 30
0.0
  3
*Model_Space
  1

  0
ENDBLK
  5
21
330
1F
100
AcDbEntity
  8
0
100
AcDbBlockEnd
  0
BLOCK
  5
1C
330
1B
100
AcDbEntity
 67
     1
  8
0
100
AcDbBlockBegin
  2
*Paper_Space
 70
     0
 10
0.0
 20
0.0
 30
0.0
  3
*Paper_Space
  1

  0
ENDBLK
  5
1D
330
1B
100
AcDbEntity
 67
     1
  8
0
100
AcDbBlockEnd
  0
BLOCK
  5
24
330
23
100
AcDbEntity
  8
0
100
AcDbBlockBegin
  2
*Paper_Space0
 70
     0
 10
0.0
 20
0.0
 30
0.0
  3
*Paper_Space0
  1

  0
ENDBLK
  5
25
330
23
100
AcDbEntity
  8
0
100
AcDbBlockEnd
  0
ENDSEC
  0
SECTION
  2
ENTITIES
  0
SPLINE
  5
7C
330
1F
100
AcDbEntity
  8
0
  6
Continuous
 62
     7
370
    25
100
AcDbSpline
210
0.0
220
0.0
230
1.0
 70
     8
 71
     3
 72
     8
 73
     4
 74
     0
 42
0.000000001
 43
0.00000001
 40
0.0
 40
0.0
 40
0.0
 40
0.0
 40
1.0
 40
1.0
 40
1.0
 40
1.0
 10
-60.03178766976242
 20
4642.119215600986
 30
0.0
 10
-60.01341916976239
 20
4642.095634200985
 30
0.0
 10
-60.06285536976242
 20
4642.089215400985
 30
0.0
 10
-60.26281416976237
 20
4642.089215400985
 30
0.0
  0
SPLINE
  5
7D
330
1F
100
AcDbEntity
  8
0
  6
Continuous
 62
     7
370
    25
100
AcDbSpline
210
0.0
220
0.0
230
1.0
 70
     8
 71
     3
 72
     8
 73
     4
 74
     0
 42
0.000000001
 43
0.00000001
 40
0.0
 40
0.0
 40
0.0
 40
0.0
 40
1.0
 40
1.0
 40
1.0
 40
1.0
 10
-60.71591236976237
 20
4643.044985700984
 30
0.0
 10
-60.71106516976238
 20
4643.028196100985
 30
0.0
 10
-60.18086736976242
 20
4642.310719700985
 30
0.0
 10
-60.03178766976242
 20
4642.119215600986
 30
0.0
  0
SPLINE
  5
7E
330
1F
100
AcDbEntity
  8
0
  6
Continuous
 62
     7
370
    25
100
AcDbSpline
210
0.0
220
0.0
230
1.0
 70
     8
 71
     3
 72
     8
 73
     4
 74
     0
 42
0.000000001
 43
0.00000001
 40
0.0
 40
0.0
 40
0.0
 40
0.0
 40
1.0
 40
1.0
 40
1.0
 40
1.0
 10
-60.37818136976242
 20
4643.430185700985
 30
0.0
 10
-60.56745346976239
 20
4643.230519500985
 30
0.0
 10
-60.71943306976241
 20
4643.057179500986
 30
0.0
 10
-60.71591236976237
 20
4643.044985700984
 30
0.0
  0
SPLINE
  5
88
330
1F
100
AcDbEntity
  8
0
  6
Continuous
 62
     7
370
    25
100
AcDbSpline
210
0.0
220
0.0
230
1.0
 70
     8
 71
     3
 72
     8
 73
     4
 74
     0
 42
0.000000001
 43
0.00000001
 40
0.0
 40
0.0
 40
0.0
 40
0.0
 40
1.0
 40
1.0
 40
1.0
 40
1.0
 10
-61.02070766976242
 20
4642.767552900986
 30
0.0
 10
-61.02989196976238
 20
4642.777638600985
 30
0.0
 10
-61.10419646976239
 20
4642.725432400985
 30
0.0
 10
-61.1858512697624
 20
4642.651539100985
 30
0.0
  0
SPLINE
  5
89
330
1F
100
AcDbEntity
  8
0
  6
Continuous
 62
     7
370
    25
100
AcDbSpline
210
0.0
220
0.0
230
1.0
 70
     8
 71
     3
 72
     8
 73
     4
 74
     0
 42
0.000000001
 43
0.00000001
 40
0.0
 40
0.0
 40
0.0
 40
0.0
 40
1.0
 40
1.0
 40
1.0
 40
1.0
 10
-60.76060626976238
 20
4642.419215500985
 30
0.0
 10
-60.89448656976237
 20
4642.600715600985
 30
0.0
 10
-61.01153196976239
 20
4642.757467300985
 30
0.0
 10
-61.02070766976242
 20
4642.767552900986
 30
0.0
  0
SPLINE
  5
8C
330
1F
100
AcDbEntity
  8
0
  6
Continuous
 62
     7
370
    25
100
AcDbSpline
210
0.0
220
0.0
230
1.0
 70
     8
 71
     3
 72
     8
 73
     4
 74
     0
 42
0.000000001
 43
0.00000001
 40
0.0
 40
0.0
 40
0.0
 40
0.0
 40
1.0
 40
1.0
 40
1.0
 40
1.0
 10
-58.2143092697624
 20
4645.401595600985
 30
0.0
 10
-58.2143092697624
 20
4645.386109900986
 30
0.0
 10
-58.35319836976238
 20
4645.377211900985
 30
0.0
 10
-58.5949567697624
 20
4645.377211900985
 30
0.0
  0
SPLINE
  5
8D
330
1F
100
AcDbEntity
  8
0
  6
Continuous
 62
     7
370
    25
100
AcDbSpline
210
0.0
220
0.0
230
1.0
 70
     8
 71
     3
 72
     8
 73
     4
 74
     0
 42
0.000000001
 43
0.00000001
 40
0.0
 40
0.0
 40
0.0
 40
0.0
 40
1.0
 40
1.0
 40
1.0
 40
1.0
 10
-58.78767586976241
 20
4646.189701900985
 30
0.0
 10
-58.4723243697624
 20
4645.769654700985
 30
0.0
 10
-58.2143092697624
 20
4645.415006800986
 30
0.0
 10
-58.2143092697624
 20
4645.401595600985
 30
0.0
  0
SPLINE
  5
8E
330
1F
100
AcDbEntity
  8
0
  6
Continuous
 62
     7
370
    25
100
AcDbSpline
210
0.0
220
0.0
230
1.0
 70
     8
 71
     3
 72
     8
 73
     4
 74
     0
 42
0.000000001
 43
0.00000001
 40
0.0
 40
0.0
 40
0.0
 40
0.0
 40
1.0
 40
1.0
 40
1.0
 40
1.0
 10
-59.39283866976236
 20
4647.004342500985
 30
0.0
 10
-59.37534896976238
 20
4646.976336200984
 30
0.0
 10
-59.10302456976241
 20
4646.609749000985
 30
0.0
 10
-58.78767586976241
 20
4646.189701900985
 30
0.0
  0
SPLINE
  5
8F
330
1F
100
AcDbEntity
  8
0
  6
Continuous
 62
     7
370
    25
100
AcDbSpline
210
0.0
220
0.0
230
1.0
 70
     8
 71
     3
 72
     8
 73
     4
 74
     0
 42
0.000000001
 43
0.00000001
 40
0.0
 40
0.0
 40
0.0
 40
0.0
 40
1.0
 40
1.0
 40
1.0
 40
1.0
 10
-58.81347396976238
 20
4647.674236400985
 30
0.0
 10
-59.3878978697624
 20
4647.092471300985
 30
0.0
 10
-59.42272716976238
 20
4647.052200100985
 30
0.0
 10
-59.39283866976236
 20
4647.004342500985
 30
0.0
  0
SPLINE
  5
9B
330
1F
100
AcDbEntity
  8
0
  6
Continuous
 62
     7
370
    25
100
AcDbSpline
210
0.0
220
0.0
230
1.0
 70
     8
 71
     3
 72
     8
 73
     4
 74
     0
 42
0.000000001
 43
0.00000001
 40
0.0
 40
0.0
 40
0.0
 40
0.0
 40
1.0
 40
1.0
 40
1.0
 40
1.0
 10
-59.89999646976241
 20
4646.600569300986
 30
0.0
 10
-59.90971936976241
 20
4646.600909500985
 30
0.0
 10
-60.01772216976242
 20
4646.506711900985
 30
0.0
 10
-60.13999456976238
 20
4646.391211700985
 30
0.0
  0
SPLINE
  5
9C
330
1F
100
AcDbEntity
  8
0
  6
Continuous
 62
     7
370
    25
100
AcDbSpline
210
0.0
220
0.0
230
1.0
 70
     8
 71
     3
 72
     8
 73
     4
 74
     0
 42
0.000000001
 43
0.00000001
 40
0.0
 40
0.0
 40
0.0
 40
0.0
 40
1.0
 40
1.0
 40
1.0
 40
1.0
 10
-59.42895776976237
 20
4645.988569300985
 30
0.0
 10
-59.6783016697624
 20
4646.324816100985
 30
0.0
 10
-59.89026796976238
 20
4646.600216100986
 30
0.0
 10
-59.89999646976241
 20
4646.600569300986
 30
0.0
  0
SPLINE
  5
BA
330
1F
100
AcDbEntity
  8
0
  6
Continuous
 62
     7
370
    25
100
AcDbSpline
210
0.0
220
0.0
230
1.0
 70
     8
 71
     3
 72
     8
 73
     4
 74
     0
 42
0.000000001
 43
0.00000001
 40
0.0
 40
0.0
 40
0.0
 40
0.0
 40
1.0
 40
1.0
 40
1.0
 40
1.0
 10
-53.99831236976238
 20
4645.393212900985
 30
0.0
 10
-54.00712816976239
 20
4645.402011700985
 30
0.0
 10
-54.01432816976237
 20
4645.547812500985
 30
0.0
 10
-54.01432816976237
 20
4645.717212900985
 30
0.0
  0
SPLINE
  5
BC
330
1F
100
AcDbEntity
  8
0
  6
Continuous
 62
     7
370
    25
100
AcDbSpline
210
0.0
220
0.0
230
1.0
 70
     8
 71
     3
 72
     8
 73
     4
 74
     0
 42
0.000000001
 43
0.00000001
 40
0.0
 40
0.0
 40
0.0
 40
0.0
 40
1.0
 40
1.0
 40
1.0
 40
1.0
 10
-52.51033886976236
 20
4645.377212500985
 30
0.0
 10
-53.31994196976236
 20
4645.377212500985
 30
0.0
 10
-53.98954196976241
 20
4645.384412500985
 30
0.0
 10
-53.9983407697624
 20
4645.393211200985
 30
0.0
  0
SPLINE
  5
C7
330
1F
100
AcDbEntity
  8
0
  6
Continuous
 62
     7
370
    25
100
AcDbSpline
210
0.0
220
0.0
230
1.0
 70
     8
 71
     3
 72
     8
 73
     4
 74
     0
 42
0.000000001
 43
0.00000001
 40
0.0
 40
0.0
 40
0.0
 40
0.0
 40
1.0
 40
1.0
 40
1.0
 40
1.0
 10
-69.90231306976247
 20
4643.064807500985
 30
0.0
 10
-69.90231306976247
 20
4643.055566500985
 30
0.0
 10
-69.74010866976244
 20
4642.832276100985
 30
0.0
 10
-69.54185866976248
 20
4642.568608400986
 30
0.0
  0
SPLINE
  5
C8
330
1F
100
AcDbEntity
  8
0
  6
Continuous
 62
     7
370
    25
100
AcDbSpline
210
0.0
220
0.0
230
1.0
 70
     8
 71
     3
 72
     8
 73
     4
 74
     0
 42
0.000000001
 43
0.00000001
 40
0.0
 40
0.0
 40
0.0
 40
0.0
 40
1.0
 40
1.0
 40
1.0
 40
1.0
 10
-69.54935056976241
 20
4643.437411700986
 30
0.0
 10
-69.74347986976248
 20
4643.241721400986
 30
0.0
 10
-69.90231306976247
 20
4643.074049300985
 30
0.0
 10
-69.90231306976247
 20
4643.064807500985
 30
0.0
  0
SPLINE
  5
D2
330
1F
100
AcDbEntity
  8
0
  6
Continuous
 62
     7
370
    25
100
AcDbSpline
210
0.0
220
0.0
230
1.0
 70
     8
 71
     3
 72
     8
 73
     4
 74
     0
 42
0.000000001
 43
0.00000001
 40
0.0
 40
0.0
 40
0.0
 40
0.0
 40
1.0
 40
1.0
 40
1.0
 40
1.0
 10
-70.1845938697624
 20
4642.755149900985
 30
0.0
 10
-70.21166476976236
 20
4642.790927700985
 30
0.0
 10
-70.23011206976237
 20
4642.780092000986
 30
0.0
 10
-70.3585937697624
 20
4642.652951300985
 30
0.0
  0
SPLINE
  5
D3
330
1F
100
AcDbEntity
  8
0
  6
Continuous
 62
     7
370
    25
100
AcDbSpline
210
0.0
220
0.0
230
1.0
 70
     8
 71
     3
 72
     8
 73
     4
 74
     0
 42
0.000000001
 43
0.00000001
 40
0.0
 40
0.0
 40
0.0
 40
0.0
 40
1.0
 40
1.0
 40
1.0
 40
1.0
 10
-69.9263131697624
 20
4642.402879500985
 30
0.0
 10
-70.05171306976243
 20
4642.574616800985
 30
0.0
 10
-70.16793916976238
 20
4642.733138400986
 30
0.0
 10
-70.1845938697624
 20
4642.755149900985
 30
0.0
  0
SPLINE
  5
114
330
1F
100
AcDbEntity
  8
0
  6
Continuous
 62
     7
370
    25
100
AcDbSpline
210
0.0
220
0.0
230
1.0
 70
     8
 71
     3
 72
     8
 73
     4
 74
     0
 42
0.000000001
 43
0.00000001
 40
0.0
 40
0.0
 40
0.0
 40
0.0
 40
1.0
 40
1.0
 40
1.0
 40
1.0
 10
-79.20124336976242
 20
4645.905212900986
 30
0.0
 10
-79.70063396976246
 20
4646.401446800985
 30
0.0
 10
-79.73791946976239
 20
4646.433212700985
 30
0.0
 10
-79.82098956976247
 20
4646.433212700985
 30
0.0
  0
SPLINE
  5
120
330
1F
100
AcDbEntity
  8
0
  6
Continuous
 62
     7
370
    25
100
AcDbSpline
210
0.0
220
0.0
230
1.0
 70
     8
 71
     3
 72
     8
 73
     4
 74
     0
 42
0.000000001
 43
0.00000001
 40
0.0
 40
0.0
 40
0.0
 40
0.0
 40
1.0
 40
1.0
 40
1.0
 40
1.0
 10
-80.70974086976246
 20
4645.392640100986
 30
0.0
 10
-80.71885426976245
 20
4645.401756300985
 30
0.0
 10
-80.72631226976246
 20
4645.790812500984
 30
0.0
 10
-80.72631226976246
 20
4646.257212900985
 30
0.0
  0
SPLINE
  5
121
330
1F
100
AcDbEntity
  8
0
  6
Continuous
 62
     7
370
    25
100
AcDbSpline
210
0.0
220
0.0
230
1.0
 70
     8
 71
     3
 72
     8
 73
     4
 74
     0
 42
0.000000001
 43
0.00000001
 40
0.0
 40
0.0
 40
0.0
 40
0.0
 40
1.0
 40
1.0
 40
1.0
 40
1.0
 10
-80.30774196976242
 20
4645.382639100985
 30
0.0
 10
-80.51972696976239
 20
4645.379025000985
 30
0.0
 10
-80.70062696976244
 20
4645.383517900985
 30
0.0
 10
-80.70974206976244
 20
4645.392639800985
 30
0.0
  0
CIRCLE
  5
123
330
1F
100
AcDbEntity
  8
0
  6
Continuous
 62
     7
370
    25
100
AcDbCircle
 10
-107.5151196175
 20
4635.6617532651
 30
0.0
 40
0.7499999999972715
  0
CIRCLE
  5
124
330
1F
100
AcDbEntity
  8
0
  6
Continuous
 62
     7
370
    25
100
AcDbCircle
 10
-146.8202224804
 20
4697.6298319756
 30
0.0
 40
0.7499999997044142
  0
CIRCLE
  5
125
330
1F
100
AcDbEntity
  8
0
  6
Continuous
 62
     7
370
    25
100
AcDbCircle
 10
-21.0916615351
 20
4635.6617532651
 30
0.0
 40
0.7499999999972715
  0
CIRCLE
  5
126
330
1F
100
AcDbEntity
  8
0
  6
Continuous
 62
     7
370
    25
100
AcDbCircle
 10
18.2134413279
 20
4697.6298319756
 30
0.0
 40
0.7499999997044142
  0
CIRCLE
  5
127
330
1F
100
AcDbEntity
  8
0
  6
Continuous
 62
     7
370
    25
100
AcDbCircle
 10
-26.5764015252
 20
4807.1145687186
 30
0.0
 40
3.169794379085033
  0
SPLINE
  5
132
330
1F
100
AcDbEntity
  8
0
  6
Continuous
 62
     7
370
    25
100
AcDbSpline
210
0.0
220
0.0
230
1.0
 70
     8
 71
     3
 72
    10
 73
     6
 74
     0
 42
0.000000001
 43
0.00000001
 40
0.0189021362217284
 40
0.0189021362217284
 40
0.0189021362217284
 40
0.0189021362217284
 40
0.3941218846301031
 40
0.4909945554856698
 40
0.987628844777396
 40
0.987628844777396
 40
0.987628844777396
 40
0.987628844777396
 10
-108.9033756247403
 20
4638.035656947862
 30
0.0
 10
-118.8219691245977
 20
4639.685871765009
 30
0.0
 10
-132.4934887428268
 20
4643.060373116346
 30
0.0
 10
-144.218775593437
 20
4654.394416395815
 30
0.0
 10
-143.099113192633
 20
4666.334603474022
 30
0.0
 10
-144.4639782703399
 20
4684.514714631518
 30
0.0
  0
SPLINE
  5
133
330
1F
100
AcDbEntity
  8
0
  6
Continuous
 62
     7
370
    25
100
AcDbSpline
210
0.0
220
0.0
230
1.0
 70
     8
 71
     3
 72
     8
 73
     4
 74
     0
 42
0.000000001
 43
0.00000001
 40
0.0047348566088476
 40
0.0047348566088476
 40
0.0047348566088476
 40
0.0047348566088476
 40
0.0351616769442046
 40
0.0351616769442046
 40
0.0351616769442046
 40
0.0351616769442046
 10
-144.4639782703399
 20
4684.514714631517
 30
0.0
 10
-144.6060936651109
 20
4687.588466408531
 30
0.0
 10
-144.9019282926764
 20
4691.324791695927
 30
0.0
 10
-144.9397436399399
 20
4695.519138342002
 30
0.0
  0
SPLINE
  5
13F
330
1F
100
AcDbEntity
  8
0
  6
Continuous
 62
     7
370
    25
100
AcDbSpline
210
0.0
220
0.0
230
1.0
 70
     8
 71
     3
 72
    17
 73
    13
 74
     0
 42
0.000000001
 43
0.00000001
 40
-2.618407167654906
 40
-2.618407167654906
 40
-2.618407167654906
 40
-2.618407167654906
 40
-2.565624700142044
 40
-2.512842232629182
 40
-2.407277297603457
 40
-2.301712362577732
 40
-2.196147427552008
 40
-2.090582492526283
 40
-1.985017557500559
 40
-1.879452622474835
 40
-1.826670154961973
 40
-1.77388768744911
 40
-1.77388768744911
 40
-1.77388768744911
 40
-1.77388768744911
 10
-104.876883195343
 20
4810.499224843543
 30
0.0
 10
-106.0965608313127
 20
4809.449934960247
 30
0.0
 10
-108.4586448544897
 20
4807.29089012598
 30
0.0
 10
-113.0376002603104
 20
4802.595468235598
 30
0.0
 10
-118.3900373213905
 20
4796.115503958879
 30
0.0
 10
-124.1900143251382
 20
4787.43293627103
 30
0.0
 10
-129.3119204231786
 20
4777.946809150682
 30
0.0
 10
-133.7142554646124
 20
4767.757887708965
 30
0.0
 10
-137.3584386881462
 20
4756.975851357128
 30
0.0
 10
-139.7372489232002
 20
4747.587905934076
 30
0.0
 10
-141.231816337365
 20
4739.902065904069
 30
0.0
 10
-141.8429822147258
 20
4735.998688424227
 30
0.0
 10
-142.112485768054
 20
4734.04673439268
 30
0.0
  0
LWPOLYLINE
  5
145
330
1F
100
AcDbEntity
  8
0
  6
Continuous
 62
     7
370
    25
100
AcDbPolyline
 90
       22
 70
   128
 43
0.0
 10
-100.9638606473
 20
4805.9507905483
 10
-103.4834137717
 20
4803.6815717557
 10
-105.9399221276
 20
4801.2634645297
 10
-108.3294329351
 20
4798.7003598588
 10
-110.6481012207
 20
4795.9963820471
 10
-112.8921960038
 20
4793.1558820788
 10
-115.0581063004
 20
4790.1834306164
 10
-117.1423469336
 20
4787.0838106461
 10
-119.1415641415
 20
4783.8620097818
 10
-121.0525409738
 20
4780.5232122391
 10
-122.8722024682
 20
4777.0727904936
 10
-124.5976205985
 20
4773.516296636
 10
-126.2260189859
 20
4769.859453438
 10
-127.7547773664
 20
4766.1081451442
 10
-129.1814358074
 20
4762.2684080031
 10
-130.5036986659
 20
4758.3464205548
 10
-131.719438282
 20
4754.3484936886
 10
-132.8266984033
 20
4750.2810604884
 10
-133.8236973319
 20
4746.1506658809
 10
-134.7088307919
 20
4741.9639561045
 10
-135.4806745109
 20
4737.7276680146
 10
-136.1379865111
 20
4733.4486182433
  0
SPLINE
  5
147
330
1F
100
AcDbEntity
  8
0
  6
Continuous
 62
     7
370
    25
100
AcDbSpline
210
0.0
220
0.0
230
1.0
 70
     8
 71
     3
 72
     8
 73
     4
 74
     0
 42
0.000000001
 43
0.00000001
 40
0.0
 40
0.0
 40
0.0
 40
0.0
 40
1.0
 40
1.0
 40
1.0
 40
1.0
 10
-64.30339057626821
 20
4656.572608607736
 30
0.0
 10
-91.55668640511638
 20
4656.386455981823
 30
0.0
 10
-111.2268021272077
 20
4666.418820727823
 30
0.0
 10
-123.3137377425423
 20
4686.669702845736
 30
0.0
  0
SPLINE
  5
148
330
1F
100
AcDbEntity
  8
0
  6
Continuous
 62
     7
370
    25
100
AcDbSpline
210
0.0
220
0.0
230
1.0
 70
     8
 71
     3
 72
     8
 73
     4
 74
     0
 42
0.000000001
 43
0.00000001
 40
0.0
 40
0.0
 40
0.0
 40
0.0
 40
1.0
 40
1.0
 40
1.0
 40
1.0
 10
-64.30339057626821
 20
4656.572608607736
 30
0.0
 10
-37.05009474742004
 20
4656.386455981823
 30
0.0
 10
-17.37997902532869
 20
4666.418820727823
 30
0.0
 10
-5.293043409994161
 20
4686.669702845736
 30
0.0
  0
LWPOLYLINE
  5
14A
330
1F
100
AcDbEntity
  8
0
  6
Continuous
 62
     7
370
    25
100
AcDbPolyline
 90
       20
 70
   128
 43
0.0
 10
-22.9891882905
 20
4801.5929013771
 10
-20.5740440265
 20
4799.0305351237
 10
-18.230251429
 20
4796.3247818717
 10
-15.9616347835
 20
4793.4800565053
 10
-13.7718957135
 20
4790.5010006649
 10
-11.6646071406
 20
4787.3924751731
 10
-9.6432074551
 20
4784.1595521037
 10
-7.7109949051
 20
4780.8075065057
 10
-5.871122215
 20
4777.3418077964
 10
-4.1265914418
 20
4773.7681108369
 10
-2.4802490761
 20
4770.092246705
 10
-0.934781398
 20
4766.3202131817
 10
0.5072899063
 20
4762.4581649638
 10
1.8436118587
 20
4758.5124036223
 10
3.0720040287
 20
4754.4893673198
 10
4.1904620913
 20
4750.3956203059
 10
5.1971610971
 20
4746.2378422064
 10
6.0904584499
 20
4742.0228171244
 10
6.8688965873
 20
4737.757422571
 10
7.5312053586
 20
4733.4486182433
  0
SPLINE
  5
14C
330
1F
100
AcDbEntity
  8
0
  6
Continuous
 62
     7
370
    25
100
AcDbSpline
210
0.0
220
0.0
230
1.0
 70
     8
 71
     3
 72
    16
 73
    12
 74
     0
 42
0.000000001
 43
0.00000001
 40
-2.547822097109009
 40
-2.547822097109009
 40
-2.547822097109009
 40
-2.547822097109009
 40
-2.512682101868802
 40
-2.406957034662782
 40
-2.301231967456761
 40
-2.195506900250741
 40
-2.089781833044722
 40
-1.984056765838701
 40
-1.878331698632681
 40
-1.825469165029671
 40
-1.772606631426661
 40
-1.772606631426661
 40
-1.772606631426661
 40
-1.772606631426661
 10
-20.14037794906719
 20
4808.505435192289
 30
0.0
 10
-19.33921510139723
 20
4807.698788220263
 30
0.0
 10
-16.16920542898452
 20
4804.38515698929
 30
0.0
 10
-10.95942896077162
 20
4798.07333459513
 30
0.0
 10
-4.937431717274475
 20
4789.049110005586
 30
0.0
 10
0.359464838264878
 20
4779.22588625126
 30
0.0
 10
4.896611241177115
 20
4768.706679246697
 30
0.0
 10
8.641256085686749
 20
4757.601560430032
 30
0.0
 10
11.07884053845799
 20
4747.950225276703
 30
0.0
 10
12.60715411033987
 20
4740.056303981019
 30
0.0
 10
13.23086374783175
 20
4736.050334580545
 30
0.0
 10
13.50570461551565
 20
4734.046734392709
 30
0.0
  0
SPLINE
  5
158
330
1F
100
AcDbEntity
  8
0
  6
Continuous
 62
     7
370
    25
100
AcDbSpline
210
0.0
220
0.0
230
1.0
 70
     8
 71
     3
 72
     8
 73
     4
 74
     0
 42
0.000000001
 43
0.00000001
 40
0.0047348566088476
 40
0.0047348566088476
 40
0.0047348566088476
 40
0.0047348566088476
 40
0.0351616769442046
 40
0.0351616769442046
 40
0.0351616769442046
 40
0.0351616769442046
 10
15.85719711780342
 20
4684.514714631517
 30
0.0
 10
15.99931251257447
 20
4687.588466408531
 30
0.0
 10
16.29514714013996
 20
4691.324791695927
 30
0.0
 10
16.33296248740348
 20
4695.519138342002
 30
0.0
  0
SPLINE
  5
159
330
1F
100
AcDbEntity
  8
0
  6
Continuous
 62
     7
370
    25
100
AcDbSpline
210
0.0
220
0.0
230
1.0
 70
     8
 71
     3
 72
    10
 73
     6
 74
     0
 42
0.000000001
 43
0.00000001
 40
0.0189021362217284
 40
0.0189021362217284
 40
0.0189021362217284
 40
0.0189021362217284
 40
0.3941218846301031
 40
0.4909945554856698
 40
0.987628844777396
 40
0.987628844777396
 40
0.987628844777396
 40
0.987628844777396
 10
-19.70340552779609
 20
4638.035656947862
 30
0.0
 10
-9.784812027938697
 20
4639.685871765009
 30
0.0
 10
3.886707590290348
 20
4643.060373116346
 30
0.0
 10
15.6119944409006
 20
4654.394416395816
 30
0.0
 10
14.49233204009651
 20
4666.334603474022
 30
0.0
 10
15.85719711780342
 20
4684.514714631518
 30
0.0
  0
SPLINE
  5
164
330
1F
100
AcDbEntity
  8
0
  6
Continuous
 62
     7
370
    25
100
AcDbSpline
210
0.0
220
0.0
230
1.0
 70
     8
 71
     3
 72
     8
 73
     4
 74
     0
 42
0.000000001
 43
0.00000001
 40
0.5002931828297458
 40
0.5002931828297458
 40
0.5002931828297458
 40
0.5002931828297458
 40
0.9819446992281233
 40
0.9819446992281233
 40
0.9819446992281233
 40
0.9819446992281233
 10
-64.30339057626821
 20
4631.426207784529
 30
0.0
 10
-50.37718641852003
 20
4631.453371402354
 30
0.0
 10
-36.07497839305565
 20
4633.559092847302
 30
0.0
 10
-22.49851199616548
 20
4637.355076027027
 30
0.0
  0
SPLINE
  5
165
330
1F
100
AcDbEntity
  8
0
  6
Continuous
 62
     7
370
    25
100
AcDbSpline
210
0.0
220
0.0
230
1.0
 70
     8
 71
     3
 72
     8
 73
     4
 74
     0
 42
0.000000001
 43
0.00000001
 40
0.5002931828297458
 40
0.5002931828297458
 40
0.5002931828297458
 40
0.5002931828297458
 40
0.9819446992281233
 40
0.9819446992281233
 40
0.9819446992281233
 40
0.9819446992281233
 10
-64.30339057626821
 20
4631.426207784529
 30
0.0
 10
-78.2295947340164
 20
4631.453371402354
 30
0.0
 10
-92.53180275948078
 20
4633.559092847302
 30
0.0
 10
-106.108269156371
 20
4637.355076027027
 30
0.0
  0
SPLINE
  5
170
330
1F
100
AcDbEntity
  8
0
  6
Continuous
 62
     7
370
    25
100
AcDbSpline
210
0.0
220
0.0
230
1.0
 70
     8
 71
     3
 72
     8
 73
     4
 74
     0
 42
0.000000001
 43
0.00000001
 40
0.0
 40
0.0
 40
0.0
 40
0.0
 40
1.0
 40
1.0
 40
1.0
 40
1.0
 10
-72.1583131697624
 20
4648.489212600985
 30
0.0
 10
-72.1583131697624
 20
4648.418812800986
 30
0.0
 10
-72.15111316976241
 20
4648.354012800985
 30
0.0
 10
-72.14231436976237
 20
4648.345212600986
 30
0.0
  0
SPLINE
  5
176
330
1F
100
AcDbEntity
  8
0
  6
Continuous
 62
     7
370
    25
100
AcDbSpline
210
0.0
220
0.0
230
1.0
 70
     8
 71
     3
 72
     8
 73
     4
 74
     0
 42
0.000000001
 43
0.00000001
 40
0.0
 40
0.0
 40
0.0
 40
0.0
 40
1.0
 40
1.0
 40
1.0
 40
1.0
 10
-72.14231436976237
 20
4648.345212600986
 30
0.0
 10
-72.13351566976245
 20
4648.336413900985
 30
0.0
 10
-71.87431446976245
 20
4648.329213900985
 30
0.0
 10
-71.56631436976247
 20
4648.329213900985
 30
0.0
  0
SPLINE
  5
177
330
1F
100
AcDbEntity
  8
0
  6
Continuous
 62
     7
370
    25
100
AcDbSpline
210
0.0
220
0.0
230
1.0
 70
     8
 71
     3
 72
     8
 73
     4
 74
     0
 42
0.000000001
 43
0.00000001
 40
0.0
 40
0.0
 40
0.0
 40
0.0
 40
1.0
 40
1.0
 40
1.0
 40
1.0
 10
-70.55031306976245
 20
4646.373212600985
 30
0.0
 10
-70.55031306976245
 20
4646.538212800985
 30
0.0
 10
-70.55865256976246
 20
4646.673212800984
 30
0.0
 10
-70.56884306976241
 20
4646.673212800984
 30
0.0
  0
SPLINE
  5
17D
330
1F
100
AcDbEntity
  8
0
  6
Continuous
 62
     7
370
    25
100
AcDbSpline
210
0.0
220
0.0
230
1.0
 70
     8
 71
     3
 72
     8
 73
     4
 74
     0
 42
0.000000001
 43
0.00000001
 40
0.0
 40
0.0
 40
0.0
 40
0.0
 40
1.0
 40
1.0
 40
1.0
 40
1.0
 10
-70.56884306976241
 20
4646.673212800984
 30
0.0
 10
-70.57903366976237
 20
4646.673212800984
 30
0.0
 10
-70.67869616976242
 20
4646.581412800985
 30
0.0
 10
-70.79031316976247
 20
4646.469212700986
 30
0.0
  0
LINE
  5
18A
330
1F
100
AcDbEntity
  8
0
  6
Continuous
 62
     7
370
    25
100
AcDbLine
 10
-54.7343139698
 20
4646.132650101
 30
0.0
 11
-55.4908582698
 21
4645.377212801
 31
0.0
  0
LINE
  5
18B
330
1F
100
AcDbEntity
  8
0
  6
Continuous
 62
     7
370
    25
100
AcDbLine
 10
-54.7343139698
 20
4648.305212701
 30
0.0
 11
-54.7343139698
 21
4646.132650101
 31
0.0
  0
LINE
  5
18C
330
1F
100
AcDbEntity
  8
0
  6
Continuous
 62
     7
370
    25
100
AcDbLine
 10
-56.9777489698
 20
4648.305212701
 30
0.0
 11
-54.7343139698
 21
4648.305212701
 31
0.0
  0
LINE
  5
18D
330
1F
100
AcDbEntity
  8
0
  6
Continuous
 62
     7
370
    25
100
AcDbLine
 10
-57.3440304698
 20
4647.939511301
 30
0.0
 11
-56.9777489698
 21
4648.305212701
 31
0.0
  0
LINE
  5
18E
330
1F
100
AcDbEntity
  8
0
  6
Continuous
 62
     7
370
    25
100
AcDbLine
 10
-57.7103120698
 20
4647.573801501
 30
0.0
 11
-57.3440304698
 21
4647.939511301
 31
0.0
  0
LINE
  5
18F
330
1F
100
AcDbEntity
  8
0
  6
Continuous
 62
     7
370
    25
100
AcDbLine
 10
-57.7103120698
 20
4645.377212801
 30
0.0
 11
-57.7103120698
 21
4647.573801501
 31
0.0
  0
LINE
  5
190
330
1F
100
AcDbEntity
  8
0
  6
Continuous
 62
     7
370
    25
100
AcDbLine
 10
-55.4908582698
 20
4645.377212801
 30
0.0
 11
-57.7103120698
 21
4645.377212801
 31
0.0
  0
LINE
  5
191
330
1F
100
AcDbEntity
  8
0
  6
Continuous
 62
     7
370
    25
100
AcDbLine
 10
-60.5171895698
 20
4642.089215401
 30
0.0
 11
-60.7606062698
 21
4642.419215501
 31
0.0
  0
LINE
  5
192
330
1F
100
AcDbEntity
  8
0
  6
Continuous
 62
     7
370
    25
100
AcDbLine
 10
-60.2628141698
 20
4642.089215401
 30
0.0
 11
-60.5171895698
 21
4642.089215401
 31
0.0
  0
LINE
  5
193
330
1F
100
AcDbEntity
  8
0
  6
Continuous
 62
     7
370
    25
100
AcDbLine
 10
-60.0340497698
 20
4643.793215601
 30
0.0
 11
-60.3781813698
 21
4643.430185701
 31
0.0
  0
LINE
  5
194
330
1F
100
AcDbEntity
  8
0
  6
Continuous
 62
     7
370
    25
100
AcDbLine
 10
-60.5543120698
 20
4643.792365201
 30
0.0
 11
-60.0340497698
 21
4643.793215601
 31
0.0
  0
LINE
  5
195
330
1F
100
AcDbEntity
  8
0
  6
Continuous
 62
     7
370
    25
100
AcDbLine
 10
-61.3103120698
 20
4643.068977301
 30
0.0
 11
-60.5543120698
 21
4643.792365201
 31
0.0
  0
LINE
  5
196
330
1F
100
AcDbEntity
  8
0
  6
Continuous
 62
     7
370
    25
100
AcDbLine
 10
-61.3103120698
 20
4643.793212801
 30
0.0
 11
-61.3103120698
 21
4643.068977301
 31
0.0
  0
LINE
  5
197
330
1F
100
AcDbEntity
  8
0
  6
Continuous
 62
     7
370
    25
100
AcDbLine
 10
-61.7663130698
 20
4643.793212801
 30
0.0
 11
-61.3103120698
 21
4643.793212801
 31
0.0
  0
LINE
  5
198
330
1F
100
AcDbEntity
  8
0
  6
Continuous
 62
     7
370
    25
100
AcDbLine
 10
-61.7663130698
 20
4642.089213701
 30
0.0
 11
-61.7663130698
 21
4643.793212801
 31
0.0
  0
LINE
  5
199
330
1F
100
AcDbEntity
  8
0
  6
Continuous
 62
     7
370
    25
100
AcDbLine
 10
-61.3343130698
 20
4642.089213701
 30
0.0
 11
-61.7663130698
 21
4642.089213701
 31
0.0
  0
LINE
  5
19A
330
1F
100
AcDbEntity
  8
0
  6
Continuous
 62
     7
370
    25
100
AcDbLine
 10
-61.3343130698
 20
4642.517186301
 30
0.0
 11
-61.3343130698
 21
4642.089213701
 31
0.0
  0
LINE
  5
19B
330
1F
100
AcDbEntity
  8
0
  6
Continuous
 62
     7
370
    25
100
AcDbLine
 10
-61.1858512698
 20
4642.651539101
 30
0.0
 11
-61.3343130698
 21
4642.517186301
 31
0.0
  0
LINE
  5
19C
330
1F
100
AcDbEntity
  8
0
  6
Continuous
 62
     7
370
    25
100
AcDbLine
 10
-58.9756043698
 20
4645.377211901
 30
0.0
 11
-59.4289577698
 21
4645.988569301
 31
0.0
  0
LINE
  5
19D
330
1F
100
AcDbEntity
  8
0
  6
Continuous
 62
     7
370
    25
100
AcDbLine
 10
-58.5949567698
 20
4645.377211901
 30
0.0
 11
-58.9756043698
 21
4645.377211901
 31
0.0
  0
LINE
  5
19E
330
1F
100
AcDbEntity
  8
0
  6
Continuous
 62
     7
370
    25
100
AcDbLine
 10
-58.2023101698
 20
4648.293211901
 30
0.0
 11
-58.8134739698
 21
4647.674236401
 31
0.0
  0
LINE
  5
19F
330
1F
100
AcDbEntity
  8
0
  6
Continuous
 62
     7
370
    25
100
AcDbLine
 10
-59.0815067698
 20
4648.306308001
 30
0.0
 11
-58.2023101698
 21
4648.293211901
 31
0.0
  0
LINE
  5
1A0
330
1F
100
AcDbEntity
  8
0
  6
Continuous
 62
     7
370
    25
100
AcDbLine
 10
-60.3383092698
 20
4647.078001901
 30
0.0
 11
-59.0815067698
 21
4648.306308001
 31
0.0
  0
LINE
  5
1A1
330
1F
100
AcDbEntity
  8
0
  6
Continuous
 62
     7
370
    25
100
AcDbLine
 10
-60.3511218698
 20
4648.305212701
 30
0.0
 11
-60.3383092698
 21
4647.078001901
 31
0.0
  0
LINE
  5
1A2
330
1F
100
AcDbEntity
  8
0
  6
Continuous
 62
     7
370
    25
100
AcDbLine
 10
-61.0943120698
 20
4648.305212701
 30
0.0
 11
-60.3511218698
 21
4648.305212701
 31
0.0
  0
LINE
  5
1A3
330
1F
100
AcDbEntity
  8
0
  6
Continuous
 62
     7
370
    25
100
AcDbLine
 10
-61.0943120698
 20
4646.840579301
 30
0.0
 11
-61.0943120698
 21
4648.305212701
 31
0.0
  0
LINE
  5
1A4
330
1F
100
AcDbEntity
  8
0
  6
Continuous
 62
     7
370
    25
100
AcDbLine
 10
-61.0942893698
 20
4646.840570301
 30
0.0
 11
-61.0943120698
 21
4646.840579301
 31
0.0
  0
LINE
  5
1A5
330
1F
100
AcDbEntity
  8
0
  6
Continuous
 62
     7
370
    25
100
AcDbLine
 10
-61.0942893698
 20
4645.375928701
 30
0.0
 11
-61.0942893698
 21
4646.840570301
 31
0.0
  0
LINE
  5
1A6
330
1F
100
AcDbEntity
  8
0
  6
Continuous
 62
     7
370
    25
100
AcDbLine
 10
-60.3862912698
 20
4645.389211801
 30
0.0
 11
-61.0942893698
 21
4645.375928701
 31
0.0
  0
LINE
  5
1A7
330
1F
100
AcDbEntity
  8
0
  6
Continuous
 62
     7
370
    25
100
AcDbLine
 10
-60.3623101698
 20
4646.181211801
 30
0.0
 11
-60.3862912698
 21
4645.389211801
 31
0.0
  0
LINE
  5
1A8
330
1F
100
AcDbEntity
  8
0
  6
Continuous
 62
     7
370
    25
100
AcDbLine
 10
-60.1399945698
 20
4646.391211701
 30
0.0
 11
-60.3623101698
 21
4646.181211801
 31
0.0
  0
LINE
  5
1A9
330
1F
100
AcDbEntity
  8
0
  6
Continuous
 62
     7
370
    25
100
AcDbLine
 10
-61.8379416698
 20
4648.305212701
 30
0.0
 11
-61.8503007698
 21
4645.389212701
 31
0.0
  0
LINE
  5
1AA
330
1F
100
AcDbEntity
  8
0
  6
Continuous
 62
     7
370
    25
100
AcDbLine
 10
-62.6063129698
 20
4648.305212701
 30
0.0
 11
-61.8379416698
 21
4648.305212701
 31
0.0
  0
LINE
  5
1AB
330
1F
100
AcDbEntity
  8
0
  6
Continuous
 62
     7
370
    25
100
AcDbLine
 10
-62.6063129698
 20
4646.840603401
 30
0.0
 11
-62.6063129698
 21
4648.305212701
 31
0.0
  0
LINE
  5
1AC
330
1F
100
AcDbEntity
  8
0
  6
Continuous
 62
     7
370
    25
100
AcDbLine
 10
-62.6063015698
 20
4645.375991901
 30
0.0
 11
-62.6063129698
 21
4646.840603401
 31
0.0
  0
LINE
  5
1AD
330
1F
100
AcDbEntity
  8
0
  6
Continuous
 62
     7
370
    25
100
AcDbLine
 10
-61.8503007698
 20
4645.389212701
 30
0.0
 11
-62.6063015698
 21
4645.375991901
 31
0.0
  0
LINE
  5
1AE
330
1F
100
AcDbEntity
  8
0
  6
Continuous
 62
     7
370
    25
100
AcDbLine
 10
-52.4063130698
 20
4642.737212901
 30
0.0
 11
-52.4063130698
 21
4642.089212901
 31
0.0
  0
LINE
  5
1AF
330
1F
100
AcDbEntity
  8
0
  6
Continuous
 62
     7
370
    25
100
AcDbLine
 10
-51.4703130698
 20
4642.737212901
 30
0.0
 11
-52.4063130698
 21
4642.737212901
 31
0.0
  0
LINE
  5
1B0
330
1F
100
AcDbEntity
  8
0
  6
Continuous
 62
     7
370
    25
100
AcDbLine
 10
-51.4703130698
 20
4642.089212901
 30
0.0
 11
-51.4703130698
 21
4642.737212901
 31
0.0
  0
LINE
  5
1B1
330
1F
100
AcDbEntity
  8
0
  6
Continuous
 62
     7
370
    25
100
AcDbLine
 10
-51.0863120698
 20
4642.089212901
 30
0.0
 11
-51.4703130698
 21
4642.089212901
 31
0.0
  0
LINE
  5
1B2
330
1F
100
AcDbEntity
  8
0
  6
Continuous
 62
     7
370
    25
100
AcDbLine
 10
-51.0863120698
 20
4643.793212801
 30
0.0
 11
-51.0863120698
 21
4642.089212901
 31
0.0
  0
LINE
  5
1B3
330
1F
100
AcDbEntity
  8
0
  6
Continuous
 62
     7
370
    25
100
AcDbLine
 10
-52.8383130698
 20
4643.793212801
 30
0.0
 11
-51.0863120698
 21
4643.793212801
 31
0.0
  0
LINE
  5
1B4
330
1F
100
AcDbEntity
  8
0
  6
Continuous
 62
     7
370
    25
100
AcDbLine
 10
-52.8383130698
 20
4643.385212901
 30
0.0
 11
-52.8383130698
 21
4643.793212801
 31
0.0
  0
LINE
  5
1B5
330
1F
100
AcDbEntity
  8
0
  6
Continuous
 62
     7
370
    25
100
AcDbLine
 10
-51.5183120698
 20
4643.385212901
 30
0.0
 11
-52.8383130698
 21
4643.385212901
 31
0.0
  0
LINE
  5
1B6
330
1F
100
AcDbEntity
  8
0
  6
Continuous
 62
     7
370
    25
100
AcDbLine
 10
-51.5183120698
 20
4643.097212901
 30
0.0
 11
-51.5183120698
 21
4643.385212901
 31
0.0
  0
LINE
  5
1B7
330
1F
100
AcDbEntity
  8
0
  6
Continuous
 62
     7
370
    25
100
AcDbLine
 10
-52.8383130698
 20
4643.097212901
 30
0.0
 11
-51.5183120698
 21
4643.097212901
 31
0.0
  0
LINE
  5
1B8
330
1F
100
AcDbEntity
  8
0
  6
Continuous
 62
     7
370
    25
100
AcDbLine
 10
-52.8383130698
 20
4642.089212901
 30
0.0
 11
-52.8383130698
 21
4643.097212901
 31
0.0
  0
LINE
  5
1B9
330
1F
100
AcDbEntity
  8
0
  6
Continuous
 62
     7
370
    25
100
AcDbLine
 10
-52.4063130698
 20
4642.089212901
 30
0.0
 11
-52.8383130698
 21
4642.089212901
 31
0.0
  0
LINE
  5
1BA
330
1F
100
AcDbEntity
  8
0
  6
Continuous
 62
     7
370
    25
100
AcDbLine
 10
-51.0383413698
 20
4647.153212401
 30
0.0
 11
-51.0383413698
 21
4645.377212501
 31
0.0
  0
LINE
  5
1BB
330
1F
100
AcDbEntity
  8
0
  6
Continuous
 62
     7
370
    25
100
AcDbLine
 10
-53.2223394698
 20
4647.153212401
 30
0.0
 11
-51.0383413698
 21
4647.153212401
 31
0.0
  0
LINE
  5
1BC
330
1F
100
AcDbEntity
  8
0
  6
Continuous
 62
     7
370
    25
100
AcDbLine
 10
-53.2223394698
 20
4647.561212301
 30
0.0
 11
-53.2223394698
 21
4647.153212401
 31
0.0
  0
LINE
  5
1BD
330
1F
100
AcDbEntity
  8
0
  6
Continuous
 62
     7
370
    25
100
AcDbLine
 10
-51.0383413698
 20
4647.561212301
 30
0.0
 11
-53.2223394698
 21
4647.561212301
 31
0.0
  0
LINE
  5
1BE
330
1F
100
AcDbEntity
  8
0
  6
Continuous
 62
     7
370
    25
100
AcDbLine
 10
-51.0383413698
 20
4648.305212401
 30
0.0
 11
-51.0383413698
 21
4647.561212301
 31
0.0
  0
LINE
  5
1BF
330
1F
100
AcDbEntity
  8
0
  6
Continuous
 62
     7
370
    25
100
AcDbLine
 10
-54.0149120698
 20
4648.305212401
 30
0.0
 11
-51.0383413698
 21
4648.305212401
 31
0.0
  0
LINE
  5
1C0
330
1F
100
AcDbEntity
  8
0
  6
Continuous
 62
     7
370
    25
100
AcDbLine
 10
-54.0023262698
 20
4646.469212401
 30
0.0
 11
-54.0149120698
 21
4648.305212401
 31
0.0
  0
LINE
  5
1C1
330
1F
100
AcDbEntity
  8
0
  6
Continuous
 62
     7
370
    25
100
AcDbLine
 10
-52.8683262698
 20
4646.462979001
 30
0.0
 11
-54.0023262698
 21
4646.469212401
 31
0.0
  0
LINE
  5
1C2
330
1F
100
AcDbEntity
  8
0
  6
Continuous
 62
     7
370
    25
100
AcDbLine
 10
-51.7343262698
 20
4646.456742801
 30
0.0
 11
-52.8683262698
 21
4646.462979001
 31
0.0
  0
LINE
  5
1C3
330
1F
100
AcDbEntity
  8
0
  6
Continuous
 62
     7
370
    25
100
AcDbLine
 10
-51.7343262698
 20
4646.025212801
 30
0.0
 11
-51.7343262698
 21
4646.456742801
 31
0.0
  0
LINE
  5
1C4
330
1F
100
AcDbEntity
  8
0
  6
Continuous
 62
     7
370
    25
100
AcDbLine
 10
-54.0143281698
 20
4646.025212801
 30
0.0
 11
-51.7343262698
 21
4646.025212801
 31
0.0
  0
LINE
  5
1C5
330
1F
100
AcDbEntity
  8
0
  6
Continuous
 62
     7
370
    25
100
AcDbLine
 10
-54.0143281698
 20
4645.717212901
 30
0.0
 11
-54.0143281698
 21
4646.025212801
 31
0.0
  0
LINE
  5
1C6
330
1F
100
AcDbEntity
  8
0
  6
Continuous
 62
     7
370
    25
100
AcDbLine
 10
-53.9983407698
 20
4645.393211201
 30
0.0
 11
-53.9983123698
 21
4645.393212901
 31
0.0
  0
LINE
  5
1C7
330
1F
100
AcDbEntity
  8
0
  6
Continuous
 62
     7
370
    25
100
AcDbLine
 10
-51.0383413698
 20
4645.377212501
 30
0.0
 11
-52.5103388698
 21
4645.377212501
 31
0.0
  0
LINE
  5
1C8
330
1F
100
AcDbEntity
  8
0
  6
Continuous
 62
     7
370
    25
100
AcDbLine
 10
-55.5263139698
 20
4642.473212701
 30
0.0
 11
-55.5263139698
 21
4642.089212901
 31
0.0
  0
LINE
  5
1C9
330
1F
100
AcDbEntity
  8
0
  6
Continuous
 62
     7
370
    25
100
AcDbLine
 10
-56.7263130698
 20
4642.473212701
 30
0.0
 11
-55.5263139698
 21
4642.473212701
 31
0.0
  0
LINE
  5
1CA
330
1F
100
AcDbEntity
  8
0
  6
Continuous
 62
     7
370
    25
100
AcDbLine
 10
-56.7263130698
 20
4643.793212801
 30
0.0
 11
-56.7263130698
 21
4642.473212701
 31
0.0
  0
LINE
  5
1CB
330
1F
100
AcDbEntity
  8
0
  6
Continuous
 62
     7
370
    25
100
AcDbLine
 10
-57.1343120698
 20
4643.793212801
 30
0.0
 11
-56.7263130698
 21
4643.793212801
 31
0.0
  0
LINE
  5
1CC
330
1F
100
AcDbEntity
  8
0
  6
Continuous
 62
     7
370
    25
100
AcDbLine
 10
-57.1343120698
 20
4642.089212901
 30
0.0
 11
-57.1343120698
 21
4643.793212801
 31
0.0
  0
LINE
  5
1CD
330
1F
100
AcDbEntity
  8
0
  6
Continuous
 62
     7
370
    25
100
AcDbLine
 10
-55.5263139698
 20
4642.089212901
 30
0.0
 11
-57.1343120698
 21
4642.089212901
 31
0.0
  0
LINE
  5
1CE
330
1F
100
AcDbEntity
  8
0
  6
Continuous
 62
     7
370
    25
100
AcDbLine
 10
-69.6983129698
 20
4642.090630201
 30
0.0
 11
-69.9263131698
 21
4642.402879501
 31
0.0
  0
LINE
  5
1CF
330
1F
100
AcDbEntity
  8
0
  6
Continuous
 62
     7
370
    25
100
AcDbLine
 10
-69.1814042698
 20
4642.089212901
 30
0.0
 11
-69.6983129698
 21
4642.090630201
 31
0.0
  0
LINE
  5
1D0
330
1F
100
AcDbEntity
  8
0
  6
Continuous
 62
     7
370
    25
100
AcDbLine
 10
-69.5418586698
 20
4642.568608401
 30
0.0
 11
-69.1814042698
 21
4642.089212901
 31
0.0
  0
LINE
  5
1D1
330
1F
100
AcDbEntity
  8
0
  6
Continuous
 62
     7
370
    25
100
AcDbLine
 10
-69.1963881698
 20
4643.793212801
 30
0.0
 11
-69.5493505698
 21
4643.437411701
 31
0.0
  0
LINE
  5
1D2
330
1F
100
AcDbEntity
  8
0
  6
Continuous
 62
     7
370
    25
100
AcDbLine
 10
-69.7457498698
 20
4643.793212801
 30
0.0
 11
-69.1963881698
 21
4643.793212801
 31
0.0
  0
LINE
  5
1D3
330
1F
100
AcDbEntity
  8
0
  6
Continuous
 62
     7
370
    25
100
AcDbLine
 10
-70.4783130698
 20
4643.061793701
 30
0.0
 11
-69.7457498698
 21
4643.793212801
 31
0.0
  0
LINE
  5
1D4
330
1F
100
AcDbEntity
  8
0
  6
Continuous
 62
     7
370
    25
100
AcDbLine
 10
-70.4783130698
 20
4643.793212801
 30
0.0
 11
-70.4783130698
 21
4643.061793701
 31
0.0
  0
LINE
  5
1D5
330
1F
100
AcDbEntity
  8
0
  6
Continuous
 62
     7
370
    25
100
AcDbLine
 10
-70.9343131698
 20
4643.793212801
 30
0.0
 11
-70.4783130698
 21
4643.793212801
 31
0.0
  0
LINE
  5
1D6
330
1F
100
AcDbEntity
  8
0
  6
Continuous
 62
     7
370
    25
100
AcDbLine
 10
-70.9343131698
 20
4642.089229001
 30
0.0
 11
-70.9343131698
 21
4643.793212801
 31
0.0
  0
LINE
  5
1D7
330
1F
100
AcDbEntity
  8
0
  6
Continuous
 62
     7
370
    25
100
AcDbLine
 10
-70.5023131698
 20
4642.089229001
 30
0.0
 11
-70.9343131698
 21
4642.089229001
 31
0.0
  0
LINE
  5
1D8
330
1F
100
AcDbEntity
  8
0
  6
Continuous
 62
     7
370
    25
100
AcDbLine
 10
-70.5023131698
 20
4642.510731501
 30
0.0
 11
-70.5023131698
 21
4642.089229001
 31
0.0
  0
LINE
  5
1D9
330
1F
100
AcDbEntity
  8
0
  6
Continuous
 62
     7
370
    25
100
AcDbLine
 10
-70.3585937698
 20
4642.652951301
 30
0.0
 11
-70.5023131698
 21
4642.510731501
 31
0.0
  0
LINE
  5
1DA
330
1F
100
AcDbEntity
  8
0
  6
Continuous
 62
     7
370
    25
100
AcDbLine
 10
-66.4223129698
 20
4646.132650101
 30
0.0
 11
-67.1788585698
 21
4645.377212801
 31
0.0
  0
LINE
  5
1DB
330
1F
100
AcDbEntity
  8
0
  6
Continuous
 62
     7
370
    25
100
AcDbLine
 10
-66.4223129698
 20
4648.305212701
 30
0.0
 11
-66.4223129698
 21
4646.132650101
 31
0.0
  0
LINE
  5
1DC
330
1F
100
AcDbEntity
  8
0
  6
Continuous
 62
     7
370
    25
100
AcDbLine
 10
-68.6657498698
 20
4648.305212701
 30
0.0
 11
-66.4223129698
 21
4648.305212701
 31
0.0
  0
LINE
  5
1DD
330
1F
100
AcDbEntity
  8
0
  6
Continuous
 62
     7
370
    25
100
AcDbLine
 10
-69.3983130698
 20
4647.573793601
 30
0.0
 11
-68.6657498698
 21
4648.305212701
 31
0.0
  0
LINE
  5
1DE
330
1F
100
AcDbEntity
  8
0
  6
Continuous
 62
     7
370
    25
100
AcDbLine
 10
-69.3983130698
 20
4645.377212801
 30
0.0
 11
-69.3983130698
 21
4647.573793601
 31
0.0
  0
LINE
  5
1DF
330
1F
100
AcDbEntity
  8
0
  6
Continuous
 62
     7
370
    25
100
AcDbLine
 10
-67.1788585698
 20
4645.377212801
 30
0.0
 11
-69.3983130698
 21
4645.377212801
 31
0.0
  0
LINE
  5
1E0
330
1F
100
AcDbEntity
  8
0
  6
Continuous
 62
     7
370
    25
100
AcDbLine
 10
-69.9023127698
 20
4646.060569001
 30
0.0
 11
-70.5629342698
 21
4645.401212001
 31
0.0
  0
LINE
  5
1E1
330
1F
100
AcDbEntity
  8
0
  6
Continuous
 62
     7
370
    25
100
AcDbLine
 10
-69.9023127698
 20
4648.329211901
 30
0.0
 11
-69.9023127698
 21
4646.060569001
 31
0.0
  0
LINE
  5
1E2
330
1F
100
AcDbEntity
  8
0
  6
Continuous
 62
     7
370
    25
100
AcDbLine
 10
-70.2863128698
 20
4648.329211901
 30
0.0
 11
-69.9023127698
 21
4648.329211901
 31
0.0
  0
LINE
  5
1E3
330
1F
100
AcDbEntity
  8
0
  6
Continuous
 62
     7
370
    25
100
AcDbLine
 10
-70.2863128698
 20
4649.337211901
 30
0.0
 11
-70.2863128698
 21
4648.329211901
 31
0.0
  0
LINE
  5
1E4
330
1F
100
AcDbEntity
  8
0
  6
Continuous
 62
     7
370
    25
100
AcDbLine
 10
-72.6383127698
 20
4649.337211901
 30
0.0
 11
-70.2863128698
 21
4649.337211901
 31
0.0
  0
LINE
  5
1E5
330
1F
100
AcDbEntity
  8
0
  6
Continuous
 62
     7
370
    25
100
AcDbLine
 10
-72.6383127698
 20
4650.394461901
 30
0.0
 11
-72.6383127698
 21
4649.337211901
 31
0.0
  0
LINE
  5
1E6
330
1F
100
AcDbEntity
  8
0
  6
Continuous
 62
     7
370
    25
100
AcDbLine
 10
-73.3703129698
 20
4650.381212801
 30
0.0
 11
-72.6383127698
 21
4650.394461901
 31
0.0
  0
LINE
  5
1E7
330
1F
100
AcDbEntity
  8
0
  6
Continuous
 62
     7
370
    25
100
AcDbLine
 10
-73.3825812698
 20
4646.265212601
 30
0.0
 11
-73.3703129698
 21
4650.381212801
 31
0.0
  0
LINE
  5
1E8
330
1F
100
AcDbEntity
  8
0
  6
Continuous
 62
     7
370
    25
100
AcDbLine
 10
-72.8303132698
 20
4646.265212601
 30
0.0
 11
-73.3825812698
 21
4646.265212601
 31
0.0
  0
LINE
  5
1E9
330
1F
100
AcDbEntity
  8
0
  6
Continuous
 62
     7
370
    25
100
AcDbLine
 10
-72.8303129698
 20
4645.401212001
 30
0.0
 11
-72.8303132698
 21
4646.265212601
 31
0.0
  0
LINE
  5
1EA
330
1F
100
AcDbEntity
  8
0
  6
Continuous
 62
     7
370
    25
100
AcDbLine
 10
-70.5629342698
 20
4645.401212001
 30
0.0
 11
-72.8303129698
 21
4645.401212001
 31
0.0
  0
LINE
  5
1EB
330
1F
100
AcDbEntity
  8
0
  6
Continuous
 62
     7
370
    25
100
AcDbLine
 10
-74.0303131698
 20
4646.132650101
 30
0.0
 11
-74.7868590698
 21
4645.377212801
 31
0.0
  0
LINE
  5
1EC
330
1F
100
AcDbEntity
  8
0
  6
Continuous
 62
     7
370
    25
100
AcDbLine
 10
-74.0303131698
 20
4648.305212701
 30
0.0
 11
-74.0303131698
 21
4646.132650101
 31
0.0
  0
LINE
  5
1ED
330
1F
100
AcDbEntity
  8
0
  6
Continuous
 62
     7
370
    25
100
AcDbLine
 10
-76.2737502698
 20
4648.305212701
 30
0.0
 11
-74.0303131698
 21
4648.305212701
 31
0.0
  0
LINE
  5
1EE
330
1F
100
AcDbEntity
  8
0
  6
Continuous
 62
     7
370
    25
100
AcDbLine
 10
-77.0063131698
 20
4647.573793601
 30
0.0
 11
-76.2737502698
 21
4648.305212701
 31
0.0
  0
LINE
  5
1EF
330
1F
100
AcDbEntity
  8
0
  6
Continuous
 62
     7
370
    25
100
AcDbLine
 10
-77.0063131698
 20
4645.377212801
 30
0.0
 11
-77.0063131698
 21
4647.573793601
 31
0.0
  0
LINE
  5
1F0
330
1F
100
AcDbEntity
  8
0
  6
Continuous
 62
     7
370
    25
100
AcDbLine
 10
-74.7868590698
 20
4645.377212801
 30
0.0
 11
-77.0063131698
 21
4645.377212801
 31
0.0
  0
LINE
  5
1F1
330
1F
100
AcDbEntity
  8
0
  6
Continuous
 62
     7
370
    25
100
AcDbLine
 10
-73.8383132698
 20
4642.436011401
 30
0.0
 11
-74.1874417698
 21
4642.089212901
 31
0.0
  0
LINE
  5
1F2
330
1F
100
AcDbEntity
  8
0
  6
Continuous
 62
     7
370
    25
100
AcDbLine
 10
-73.8383132698
 20
4643.793212801
 30
0.0
 11
-73.8383132698
 21
4642.436011401
 31
0.0
  0
LINE
  5
1F3
330
1F
100
AcDbEntity
  8
0
  6
Continuous
 62
     7
370
    25
100
AcDbLine
 10
-75.2172512698
 20
4643.793212801
 30
0.0
 11
-73.8383132698
 21
4643.793212801
 31
0.0
  0
LINE
  5
1F4
330
1F
100
AcDbEntity
  8
0
  6
Continuous
 62
     7
370
    25
100
AcDbLine
 10
-75.5903133698
 20
4643.422338801
 30
0.0
 11
-75.2172512698
 21
4643.793212801
 31
0.0
  0
LINE
  5
1F5
330
1F
100
AcDbEntity
  8
0
  6
Continuous
 62
     7
370
    25
100
AcDbLine
 10
-75.5903133698
 20
4642.089212901
 30
0.0
 11
-75.5903133698
 21
4643.422338801
 31
0.0
  0
LINE
  5
1F6
330
1F
100
AcDbEntity
  8
0
  6
Continuous
 62
     7
370
    25
100
AcDbLine
 10
-74.1874417698
 20
4642.089212901
 30
0.0
 11
-75.5903133698
 21
4642.089212901
 31
0.0
  0
LINE
  5
1F7
330
1F
100
AcDbEntity
  8
0
  6
Continuous
 62
     7
370
    25
100
AcDbLine
 10
-80.2703132698
 20
4643.433212801
 30
0.0
 11
-80.2703132698
 21
4642.089212901
 31
0.0
  0
LINE
  5
1F8
330
1F
100
AcDbEntity
  8
0
  6
Continuous
 62
     7
370
    25
100
AcDbLine
 10
-79.7423134698
 20
4643.433212801
 30
0.0
 11
-80.2703132698
 21
4643.433212801
 31
0.0
  0
LINE
  5
1F9
330
1F
100
AcDbEntity
  8
0
  6
Continuous
 62
     7
370
    25
100
AcDbLine
 10
-79.7423134698
 20
4642.089212901
 30
0.0
 11
-79.7423134698
 21
4643.433212801
 31
0.0
  0
LINE
  5
1FA
330
1F
100
AcDbEntity
  8
0
  6
Continuous
 62
     7
370
    25
100
AcDbLine
 10
-79.3343132698
 20
4642.089212901
 30
0.0
 11
-79.7423134698
 21
4642.089212901
 31
0.0
  0
LINE
  5
1FB
330
1F
100
AcDbEntity
  8
0
  6
Continuous
 62
     7
370
    25
100
AcDbLine
 10
-79.3343132698
 20
4643.433212801
 30
0.0
 11
-79.3343132698
 21
4642.089212901
 31
0.0
  0
LINE
  5
1FC
330
1F
100
AcDbEntity
  8
0
  6
Continuous
 62
     7
370
    25
100
AcDbLine
 10
-78.7823133698
 20
4643.433212801
 30
0.0
 11
-79.3343132698
 21
4643.433212801
 31
0.0
  0
LINE
  5
1FD
330
1F
100
AcDbEntity
  8
0
  6
Continuous
 62
     7
370
    25
100
AcDbLine
 10
-78.7823133698
 20
4642.089212901
 30
0.0
 11
-78.7823133698
 21
4643.433212801
 31
0.0
  0
LINE
  5
1FE
330
1F
100
AcDbEntity
  8
0
  6
Continuous
 62
     7
370
    25
100
AcDbLine
 10
-78.3743131698
 20
4642.089212901
 30
0.0
 11
-78.7823133698
 21
4642.089212901
 31
0.0
  0
LINE
  5
1FF
330
1F
100
AcDbEntity
  8
0
  6
Continuous
 62
     7
370
    25
100
AcDbLine
 10
-78.3743131698
 20
4643.793212801
 30
0.0
 11
-78.3743131698
 21
4642.089212901
 31
0.0
  0
LINE
  5
200
330
1F
100
AcDbEntity
  8
0
  6
Continuous
 62
     7
370
    25
100
AcDbLine
 10
-80.6783134698
 20
4643.793212801
 30
0.0
 11
-78.3743131698
 21
4643.793212801
 31
0.0
  0
LINE
  5
201
330
1F
100
AcDbEntity
  8
0
  6
Continuous
 62
     7
370
    25
100
AcDbLine
 10
-80.6783134698
 20
4642.089212901
 30
0.0
 11
-80.6783134698
 21
4643.793212801
 31
0.0
  0
LINE
  5
202
330
1F
100
AcDbEntity
  8
0
  6
Continuous
 62
     7
370
    25
100
AcDbLine
 10
-80.2703132698
 20
4642.089212901
 30
0.0
 11
-80.6783134698
 21
4642.089212901
 31
0.0
  0
LINE
  5
203
330
1F
100
AcDbEntity
  8
0
  6
Continuous
 62
     7
370
    25
100
AcDbLine
 10
-64.1663128698
 20
4647.561212601
 30
0.0
 11
-64.1663128698
 21
4645.377212801
 31
0.0
  0
LINE
  5
204
330
1F
100
AcDbEntity
  8
0
  6
Continuous
 62
     7
370
    25
100
AcDbLine
 10
-62.9903127698
 20
4647.561212601
 30
0.0
 11
-64.1663128698
 21
4647.561212601
 31
0.0
  0
LINE
  5
205
330
1F
100
AcDbEntity
  8
0
  6
Continuous
 62
     7
370
    25
100
AcDbLine
 10
-62.9903127698
 20
4648.305212701
 30
0.0
 11
-62.9903127698
 21
4647.561212601
 31
0.0
  0
LINE
  5
206
330
1F
100
AcDbEntity
  8
0
  6
Continuous
 62
     7
370
    25
100
AcDbLine
 10
-65.9663128698
 20
4648.305212701
 30
0.0
 11
-62.9903127698
 21
4648.305212701
 31
0.0
  0
LINE
  5
207
330
1F
100
AcDbEntity
  8
0
  6
Continuous
 62
     7
370
    25
100
AcDbLine
 10
-65.9663128698
 20
4647.561212601
 30
0.0
 11
-65.9663128698
 21
4648.305212701
 31
0.0
  0
LINE
  5
208
330
1F
100
AcDbEntity
  8
0
  6
Continuous
 62
     7
370
    25
100
AcDbLine
 10
-64.8623130698
 20
4647.561212601
 30
0.0
 11
-65.9663128698
 21
4647.561212601
 31
0.0
  0
LINE
  5
209
330
1F
100
AcDbEntity
  8
0
  6
Continuous
 62
     7
370
    25
100
AcDbLine
 10
-64.8623130698
 20
4645.377212801
 30
0.0
 11
-64.8623130698
 21
4647.561212601
 31
0.0
  0
LINE
  5
20A
330
1F
100
AcDbEntity
  8
0
  6
Continuous
 62
     7
370
    25
100
AcDbLine
 10
-64.1663128698
 20
4645.377212801
 30
0.0
 11
-64.8623130698
 21
4645.377212801
 31
0.0
  0
LINE
  5
20B
330
1F
100
AcDbEntity
  8
0
  6
Continuous
 62
     7
370
    25
100
AcDbLine
 10
-64.6223129698
 20
4642.460086601
 30
0.0
 11
-64.9953749698
 21
4642.089212901
 31
0.0
  0
LINE
  5
20C
330
1F
100
AcDbEntity
  8
0
  6
Continuous
 62
     7
370
    25
100
AcDbLine
 10
-64.6223129698
 20
4643.793212801
 30
0.0
 11
-64.6223129698
 21
4642.460086601
 31
0.0
  0
LINE
  5
20D
330
1F
100
AcDbEntity
  8
0
  6
Continuous
 62
     7
370
    25
100
AcDbLine
 10
-65.0303128698
 20
4643.793212801
 30
0.0
 11
-64.6223129698
 21
4643.793212801
 31
0.0
  0
LINE
  5
20E
330
1F
100
AcDbEntity
  8
0
  6
Continuous
 62
     7
370
    25
100
AcDbLine
 10
-65.0303128698
 20
4643.097212901
 30
0.0
 11
-65.0303128698
 21
4643.793212801
 31
0.0
  0
LINE
  5
20F
330
1F
100
AcDbEntity
  8
0
  6
Continuous
 62
     7
370
    25
100
AcDbLine
 10
-65.9423130698
 20
4643.097212901
 30
0.0
 11
-65.0303128698
 21
4643.097212901
 31
0.0
  0
LINE
  5
210
330
1F
100
AcDbEntity
  8
0
  6
Continuous
 62
     7
370
    25
100
AcDbLine
 10
-65.9423130698
 20
4643.793212801
 30
0.0
 11
-65.9423130698
 21
4643.097212901
 31
0.0
  0
LINE
  5
211
330
1F
100
AcDbEntity
  8
0
  6
Continuous
 62
     7
370
    25
100
AcDbLine
 10
-66.3743130698
 20
4643.793212801
 30
0.0
 11
-65.9423130698
 21
4643.793212801
 31
0.0
  0
LINE
  5
212
330
1F
100
AcDbEntity
  8
0
  6
Continuous
 62
     7
370
    25
100
AcDbLine
 10
-66.3743130698
 20
4642.737212901
 30
0.0
 11
-66.3743130698
 21
4643.793212801
 31
0.0
  0
LINE
  5
213
330
1F
100
AcDbEntity
  8
0
  6
Continuous
 62
     7
370
    25
100
AcDbLine
 10
-65.0303128698
 20
4642.737212901
 30
0.0
 11
-66.3743130698
 21
4642.737212901
 31
0.0
  0
LINE
  5
214
330
1F
100
AcDbEntity
  8
0
  6
Continuous
 62
     7
370
    25
100
AcDbLine
 10
-65.0303128698
 20
4642.473212701
 30
0.0
 11
-65.0303128698
 21
4642.737212901
 31
0.0
  0
LINE
  5
215
330
1F
100
AcDbEntity
  8
0
  6
Continuous
 62
     7
370
    25
100
AcDbLine
 10
-66.3743130698
 20
4642.473212701
 30
0.0
 11
-65.0303128698
 21
4642.473212701
 31
0.0
  0
LINE
  5
216
330
1F
100
AcDbEntity
  8
0
  6
Continuous
 62
     7
370
    25
100
AcDbLine
 10
-66.3743130698
 20
4642.089212901
 30
0.0
 11
-66.3743130698
 21
4642.473212701
 31
0.0
  0
LINE
  5
217
330
1F
100
AcDbEntity
  8
0
  6
Continuous
 62
     7
370
    25
100
AcDbLine
 10
-64.9953749698
 20
4642.089212901
 30
0.0
 11
-66.3743130698
 21
4642.089212901
 31
0.0
  0
LINE
  5
218
330
1F
100
AcDbEntity
  8
0
  6
Continuous
 62
     7
370
    25
100
AcDbLine
 10
-79.9093772698
 20
4646.433212701
 30
0.0
 11
-79.9223145698
 21
4645.389212701
 31
0.0
  0
LINE
  5
219
330
1F
100
AcDbEntity
  8
0
  6
Continuous
 62
     7
370
    25
100
AcDbLine
 10
-79.8209895698
 20
4646.433212701
 30
0.0
 11
-79.9093772698
 21
4646.433212701
 31
0.0
  0
LINE
  5
21A
330
1F
100
AcDbEntity
  8
0
  6
Continuous
 62
     7
370
    25
100
AcDbLine
 10
-78.6698844698
 20
4645.377215601
 30
0.0
 11
-79.2012433698
 21
4645.905212901
 31
0.0
  0
LINE
  5
21B
330
1F
100
AcDbEntity
  8
0
  6
Continuous
 62
     7
370
    25
100
AcDbLine
 10
-77.7387116698
 20
4645.377215601
 30
0.0
 11
-78.6698844698
 21
4645.377215601
 31
0.0
  0
LINE
  5
21C
330
1F
100
AcDbEntity
  8
0
  6
Continuous
 62
     7
370
    25
100
AcDbLine
 10
-78.8161184698
 20
4646.455421001
 30
0.0
 11
-77.7387116698
 21
4645.377215601
 31
0.0
  0
LINE
  5
21D
330
1F
100
AcDbEntity
  8
0
  6
Continuous
 62
     7
370
    25
100
AcDbLine
 10
-77.7503115698
 20
4646.425628901
 30
0.0
 11
-78.8161184698
 21
4646.455421001
 31
0.0
  0
LINE
  5
21E
330
1F
100
AcDbEntity
  8
0
  6
Continuous
 62
     7
370
    25
100
AcDbLine
 10
-77.7503115698
 20
4648.305214101
 30
0.0
 11
-77.7503115698
 21
4646.425628901
 31
0.0
  0
LINE
  5
21F
330
1F
100
AcDbEntity
  8
0
  6
Continuous
 62
     7
370
    25
100
AcDbLine
 10
-80.7276294698
 20
4648.305214101
 30
0.0
 11
-77.7503115698
 21
4648.305214101
 31
0.0
  0
LINE
  5
220
330
1F
100
AcDbEntity
  8
0
  6
Continuous
 62
     7
370
    25
100
AcDbLine
 10
-80.7143122698
 20
4647.621214101
 30
0.0
 11
-80.7276294698
 21
4648.305214101
 31
0.0
  0
LINE
  5
221
330
1F
100
AcDbEntity
  8
0
  6
Continuous
 62
     7
370
    25
100
AcDbLine
 10
-78.4223122698
 20
4647.608747301
 30
0.0
 11
-80.7143122698
 21
4647.621214101
 31
0.0
  0
LINE
  5
222
330
1F
100
AcDbEntity
  8
0
  6
Continuous
 62
     7
370
    25
100
AcDbLine
 10
-78.4223122698
 20
4647.105212801
 30
0.0
 11
-78.4223122698
 21
4647.608747301
 31
0.0
  0
LINE
  5
223
330
1F
100
AcDbEntity
  8
0
  6
Continuous
 62
     7
370
    25
100
AcDbLine
 10
-80.7263122698
 20
4647.105212801
 30
0.0
 11
-78.4223122698
 21
4647.105212801
 31
0.0
  0
LINE
  5
224
330
1F
100
AcDbEntity
  8
0
  6
Continuous
 62
     7
370
    25
100
AcDbLine
 10
-80.7263122698
 20
4646.257212901
 30
0.0
 11
-80.7263122698
 21
4647.105212801
 31
0.0
  0
LINE
  5
225
330
1F
100
AcDbEntity
  8
0
  6
Continuous
 62
     7
370
    25
100
AcDbLine
 10
-79.9223145698
 20
4645.389212701
 30
0.0
 11
-80.3077419698
 21
4645.382639101
 31
0.0
  0
LINE
  5
226
330
1F
100
AcDbEntity
  8
0
  6
Continuous
 62
     7
370
    25
100
AcDbLine
 10
-105.5775402302
 20
4636.4725113226
 30
0.0
 11
-106.1082691564
 21
4637.355076027
 31
0.0
  0
LINE
  5
227
330
1F
100
AcDbEntity
  8
0
  6
Continuous
 62
     7
370
    25
100
AcDbLine
 10
-104.2731523047
 20
4636.4725113226
 30
0.0
 11
-105.5775402302
 21
4636.4725113226
 31
0.0
  0
LINE
  5
228
330
1F
100
AcDbEntity
  8
0
  6
Continuous
 62
     7
370
    25
100
AcDbLine
 10
-104.2731523047
 20
4636.4725113226
 30
0.0
 11
-104.500152189
 21
4634.07100473
 31
0.0
  0
LINE
  5
229
330
1F
100
AcDbEntity
  8
0
  6
Continuous
 62
     7
370
    25
100
AcDbLine
 10
-104.500152189
 20
4634.07100473
 30
0.0
 11
-106.5342993736
 21
4633.2641994951
 31
0.0
  0
LINE
  5
22A
330
1F
100
AcDbEntity
  8
0
  6
Continuous
 62
     7
370
    25
100
AcDbLine
 10
-106.5342993736
 20
4633.2641994951
 30
0.0
 11
-107.9595046638
 21
4633.3404342444
 31
0.0
  0
LINE
  5
22B
330
1F
100
AcDbEntity
  8
0
  6
Continuous
 62
     7
370
    25
100
AcDbLine
 10
-109.3120976696
 20
4633.7959713082
 30
0.0
 11
-107.9595046638
 21
4633.3404342444
 31
0.0
  0
LINE
  5
22C
330
1F
100
AcDbEntity
  8
0
  6
Continuous
 62
     7
370
    25
100
AcDbLine
 10
-110.9044378305
 20
4635.2970183653
 30
0.0
 11
-109.3120976696
 21
4633.7959713082
 31
0.0
  0
LINE
  5
22D
330
1F
100
AcDbEntity
  8
0
  6
Continuous
 62
     7
370
    25
100
AcDbLine
 10
-110.2284214905
 20
4637.6125668467
 30
0.0
 11
-110.9044378305
 21
4635.2970183653
 31
0.0
  0
LINE
  5
22E
330
1F
100
AcDbEntity
  8
0
  6
Continuous
 62
     7
370
    25
100
AcDbLine
 10
-110.2284214905
 20
4637.6125668467
 30
0.0
 11
-109.1110121062
 21
4636.9369215287
 31
0.0
  0
LINE
  5
22F
330
1F
100
AcDbEntity
  8
0
  6
Continuous
 62
     7
370
    25
100
AcDbLine
 10
-109.1110121062
 20
4636.9369215287
 30
0.0
 11
-108.9033756247
 21
4638.0356569479
 31
0.0
  0
LINE
  5
230
330
1F
100
AcDbEntity
  8
0
  6
Continuous
 62
     7
370
    25
100
AcDbLine
 10
-144.9397436399
 20
4695.519138342
 30
0.0
 11
-145.773758332
 21
4695.519138342
 31
0.0
  0
LINE
  5
231
330
1F
100
AcDbEntity
  8
0
  6
Continuous
 62
     7
370
    25
100
AcDbLine
 10
-145.773758332
 20
4695.519138342
 30
0.0
 11
-145.5973124485
 21
4694.6247250626
 31
0.0
  0
LINE
  5
232
330
1F
100
AcDbEntity
  8
0
  6
Continuous
 62
     7
370
    25
100
AcDbLine
 10
-145.5973124485
 20
4694.6247250626
 30
0.0
 11
-147.8370873245
 21
4694.6247250626
 31
0.0
  0
LINE
  5
233
330
1F
100
AcDbEntity
  8
0
  6
Continuous
 62
     7
370
    25
100
AcDbLine
 10
-147.8370873245
 20
4694.6247250626
 30
0.0
 11
-148.9829899798
 21
4695.944509376
 31
0.0
  0
LINE
  5
234
330
1F
100
AcDbEntity
  8
0
  6
Continuous
 62
     7
370
    25
100
AcDbLine
 10
-148.9829899798
 20
4695.944509376
 30
0.0
 11
-149.222790895
 21
4697.597182293
 31
0.0
  0
LINE
  5
235
330
1F
100
AcDbEntity
  8
0
  6
Continuous
 62
     7
370
    25
100
AcDbLine
 10
-149.0279882084
 20
4699.2557612519
 30
0.0
 11
-149.222790895
 21
4697.597182293
 31
0.0
  0
LINE
  5
236
330
1F
100
AcDbEntity
  8
0
  6
Continuous
 62
     7
370
    25
100
AcDbLine
 10
-147.9183724841
 20
4700.6061969126
 30
0.0
 11
-149.0279882084
 21
4699.2557612519
 31
0.0
  0
LINE
  5
237
330
1F
100
AcDbEntity
  8
0
  6
Continuous
 62
     7
370
    25
100
AcDbLine
 10
-145.6794247131
 20
4700.6670604751
 30
0.0
 11
-147.9183724841
 21
4700.6061969126
 31
0.0
  0
LINE
  5
238
330
1F
100
AcDbEntity
  8
0
  6
Continuous
 62
     7
370
    25
100
AcDbLine
 10
-145.7740148455
 20
4699.7908462363
 30
0.0
 11
-145.6794247131
 21
4700.6670604751
 31
0.0
  0
LINE
  5
239
330
1F
100
AcDbEntity
  8
0
  6
Continuous
 62
     7
370
    25
100
AcDbLine
 10
-144.7503624648
 20
4699.7908462363
 30
0.0
 11
-145.7740148455
 21
4699.7908462363
 31
0.0
  0
LINE
  5
23A
330
1F
100
AcDbEntity
  8
0
  6
Continuous
 62
     7
370
    25
100
AcDbLine
 10
-144.7503624648
 20
4699.7908462363
 30
0.0
 11
-142.1124857681
 21
4734.0467343927
 31
0.0
  0
LINE
  5
23B
330
1F
100
AcDbEntity
  8
0
  6
Continuous
 62
     7
370
    25
100
AcDbLine
 10
13.5057046155
 20
4734.0467343927
 30
0.0
 11
16.1435813123
 21
4699.7908462363
 31
0.0
  0
LINE
  5
23C
330
1F
100
AcDbEntity
  8
0
  6
Continuous
 62
     7
370
    25
100
AcDbLine
 10
16.1435813123
 20
4699.7908462363
 30
0.0
 11
17.1672336929
 21
4699.7908462363
 31
0.0
  0
LINE
  5
23D
330
1F
100
AcDbEntity
  8
0
  6
Continuous
 62
     7
370
    25
100
AcDbLine
 10
17.1672336929
 20
4699.7908462363
 30
0.0
 11
17.0726435605
 21
4700.6670604751
 31
0.0
  0
LINE
  5
23E
330
1F
100
AcDbEntity
  8
0
  6
Continuous
 62
     7
370
    25
100
AcDbLine
 10
17.0726435605
 20
4700.6670604751
 30
0.0
 11
19.3115913316
 21
4700.6061969126
 31
0.0
  0
LINE
  5
23F
330
1F
100
AcDbEntity
  8
0
  6
Continuous
 62
     7
370
    25
100
AcDbLine
 10
19.3115913316
 20
4700.6061969126
 30
0.0
 11
20.4212070558
 21
4699.2557612519
 31
0.0
  0
LINE
  5
240
330
1F
100
AcDbEntity
  8
0
  6
Continuous
 62
     7
370
    25
100
AcDbLine
 10
20.4212070558
 20
4699.2557612519
 30
0.0
 11
20.6160097425
 21
4697.597182293
 31
0.0
  0
LINE
  5
241
330
1F
100
AcDbEntity
  8
0
  6
Continuous
 62
     7
370
    25
100
AcDbLine
 10
20.3762088273
 20
4695.944509376
 30
0.0
 11
20.6160097425
 21
4697.597182293
 31
0.0
  0
LINE
  5
242
330
1F
100
AcDbEntity
  8
0
  6
Continuous
 62
     7
370
    25
100
AcDbLine
 10
19.2303061719
 20
4694.6247250626
 30
0.0
 11
20.3762088273
 21
4695.944509376
 31
0.0
  0
LINE
  5
243
330
1F
100
AcDbEntity
  8
0
  6
Continuous
 62
     7
370
    25
100
AcDbLine
 10
16.990531296
 20
4694.6247250626
 30
0.0
 11
19.2303061719
 21
4694.6247250626
 31
0.0
  0
LINE
  5
244
330
1F
100
AcDbEntity
  8
0
  6
Continuous
 62
     7
370
    25
100
AcDbLine
 10
17.1669771794
 20
4695.519138342
 30
0.0
 11
16.990531296
 21
4694.6247250626
 31
0.0
  0
LINE
  5
245
330
1F
100
AcDbEntity
  8
0
  6
Continuous
 62
     7
370
    25
100
AcDbLine
 10
16.3329624874
 20
4695.519138342
 30
0.0
 11
17.1669771794
 21
4695.519138342
 31
0.0
  0
LINE
  5
246
330
1F
100
AcDbEntity
  8
0
  6
Continuous
 62
     7
370
    25
100
AcDbLine
 10
-19.4957690463
 20
4636.9369215287
 30
0.0
 11
-19.7034055278
 21
4638.0356569479
 31
0.0
  0
LINE
  5
247
330
1F
100
AcDbEntity
  8
0
  6
Continuous
 62
     7
370
    25
100
AcDbLine
 10
-18.378359662
 20
4637.6125668467
 30
0.0
 11
-19.4957690463
 21
4636.9369215287
 31
0.0
  0
LINE
  5
248
330
1F
100
AcDbEntity
  8
0
  6
Continuous
 62
     7
370
    25
100
AcDbLine
 10
-18.378359662
 20
4637.6125668467
 30
0.0
 11
-17.702343322
 21
4635.2970183653
 31
0.0
  0
LINE
  5
249
330
1F
100
AcDbEntity
  8
0
  6
Continuous
 62
     7
370
    25
100
AcDbLine
 10
-17.702343322
 20
4635.2970183653
 30
0.0
 11
-19.2946834829
 21
4633.7959713082
 31
0.0
  0
LINE
  5
24A
330
1F
100
AcDbEntity
  8
0
  6
Continuous
 62
     7
370
    25
100
AcDbLine
 10
-19.2946834829
 20
4633.7959713082
 30
0.0
 11
-20.6472764888
 21
4633.3404342444
 31
0.0
  0
LINE
  5
24B
330
1F
100
AcDbEntity
  8
0
  6
Continuous
 62
     7
370
    25
100
AcDbLine
 10
-22.0724817789
 20
4633.2641994951
 30
0.0
 11
-20.6472764888
 21
4633.3404342444
 31
0.0
  0
LINE
  5
24C
330
1F
100
AcDbEntity
  8
0
  6
Continuous
 62
     7
370
    25
100
AcDbLine
 10
-24.1066289635
 20
4634.07100473
 30
0.0
 11
-22.0724817789
 21
4633.2641994951
 31
0.0
  0
LINE
  5
24D
330
1F
100
AcDbEntity
  8
0
  6
Continuous
 62
     7
370
    25
100
AcDbLine
 10
-24.3336288478
 20
4636.4725113226
 30
0.0
 11
-24.1066289635
 21
4634.07100473
 31
0.0
  0
LINE
  5
24E
330
1F
100
AcDbEntity
  8
0
  6
Continuous
 62
     7
370
    25
100
AcDbLine
 10
-24.3336288478
 20
4636.4725113226
 30
0.0
 11
-23.0292409223
 21
4636.4725113226
 31
0.0
  0
LINE
  5
24F
330
1F
100
AcDbEntity
  8
0
  6
Continuous
 62
     7
370
    25
100
AcDbLine
 10
-23.0292409223
 20
4636.4725113226
 30
0.0
 11
-22.4985119962
 21
4637.355076027
 31
0.0
  0
LINE
  5
250
330
1F
100
AcDbEntity
  8
0
  6
Continuous
 62
     7
370
    25
100
AcDbLine
 10
-75.1823131698
 20
4642.448176201
 30
0.0
 11
-74.2583133698
 21
4642.461215601
 31
0.0
  0
LINE
  5
251
330
1F
100
AcDbEntity
  8
0
  6
Continuous
 62
     7
370
    25
100
AcDbLine
 10
-75.1823131698
 20
4643.434249401
 30
0.0
 11
-75.1823131698
 21
4642.448176201
 31
0.0
  0
LINE
  5
252
330
1F
100
AcDbEntity
  8
0
  6
Continuous
 62
     7
370
    25
100
AcDbLine
 10
-74.7203132698
 20
4643.427729701
 30
0.0
 11
-75.1823131698
 21
4643.434249401
 31
0.0
  0
LINE
  5
253
330
1F
100
AcDbEntity
  8
0
  6
Continuous
 62
     7
370
    25
100
AcDbLine
 10
-74.2583133698
 20
4643.421212901
 30
0.0
 11
-74.7203132698
 21
4643.427729701
 31
0.0
  0
LINE
  5
254
330
1F
100
AcDbEntity
  8
0
  6
Continuous
 62
     7
370
    25
100
AcDbLine
 10
-74.2583133698
 20
4642.461215601
 30
0.0
 11
-74.2583133698
 21
4643.421212901
 31
0.0
  0
LINE
  5
255
330
1F
100
AcDbEntity
  8
0
  6
Continuous
 62
     7
370
    25
100
AcDbLine
 10
-76.2863131698
 20
4646.073212701
 30
0.0
 11
-74.7503131698
 21
4646.073212701
 31
0.0
  0
LINE
  5
256
330
1F
100
AcDbEntity
  8
0
  6
Continuous
 62
     7
370
    25
100
AcDbLine
 10
-76.2863131698
 20
4647.609212801
 30
0.0
 11
-76.2863131698
 21
4646.073212701
 31
0.0
  0
LINE
  5
257
330
1F
100
AcDbEntity
  8
0
  6
Continuous
 62
     7
370
    25
100
AcDbLine
 10
-74.7503131698
 20
4647.609212801
 30
0.0
 11
-76.2863131698
 21
4647.609212801
 31
0.0
  0
LINE
  5
258
330
1F
100
AcDbEntity
  8
0
  6
Continuous
 62
     7
370
    25
100
AcDbLine
 10
-74.7503131698
 20
4646.073212701
 30
0.0
 11
-74.7503131698
 21
4647.609212801
 31
0.0
  0
LINE
  5
259
330
1F
100
AcDbEntity
  8
0
  6
Continuous
 62
     7
370
    25
100
AcDbLine
 10
-72.1583131698
 20
4648.617212801
 30
0.0
 11
-72.1583131698
 21
4648.489212601
 31
0.0
  0
LINE
  5
25A
330
1F
100
AcDbEntity
  8
0
  6
Continuous
 62
     7
370
    25
100
AcDbLine
 10
-71.0063131698
 20
4648.617212801
 30
0.0
 11
-72.1583131698
 21
4648.617212801
 31
0.0
  0
LINE
  5
25B
330
1F
100
AcDbEntity
  8
0
  6
Continuous
 62
     7
370
    25
100
AcDbLine
 10
-71.0063131698
 20
4648.473212801
 30
0.0
 11
-71.0063131698
 21
4648.617212801
 31
0.0
  0
LINE
  5
25C
330
1F
100
AcDbEntity
  8
0
  6
Continuous
 62
     7
370
    25
100
AcDbLine
 10
-71.0063145698
 20
4648.329213901
 30
0.0
 11
-71.0063131698
 21
4648.473212801
 31
0.0
  0
LINE
  5
25D
330
1F
100
AcDbEntity
  8
0
  6
Continuous
 62
     7
370
    25
100
AcDbLine
 10
-71.5663143698
 20
4648.329213901
 30
0.0
 11
-71.0063145698
 21
4648.329213901
 31
0.0
  0
LINE
  5
25E
330
1F
100
AcDbEntity
  8
0
  6
Continuous
 62
     7
370
    25
100
AcDbLine
 10
-70.5503130698
 20
4646.073212701
 30
0.0
 11
-70.5503130698
 21
4646.373212601
 31
0.0
  0
LINE
  5
25F
330
1F
100
AcDbEntity
  8
0
  6
Continuous
 62
     7
370
    25
100
AcDbLine
 10
-72.1103132698
 20
4646.073212701
 30
0.0
 11
-70.5503130698
 21
4646.073212701
 31
0.0
  0
LINE
  5
260
330
1F
100
AcDbEntity
  8
0
  6
Continuous
 62
     7
370
    25
100
AcDbLine
 10
-72.1103132698
 20
4646.265212601
 30
0.0
 11
-72.1103132698
 21
4646.073212701
 31
0.0
  0
LINE
  5
261
330
1F
100
AcDbEntity
  8
0
  6
Continuous
 62
     7
370
    25
100
AcDbLine
 10
-70.9932533698
 20
4646.265212601
 30
0.0
 11
-72.1103132698
 21
4646.265212601
 31
0.0
  0
LINE
  5
262
330
1F
100
AcDbEntity
  8
0
  6
Continuous
 62
     7
370
    25
100
AcDbLine
 10
-70.7903131698
 20
4646.469212701
 30
0.0
 11
-70.9932533698
 21
4646.265212601
 31
0.0
  0
LINE
  5
263
330
1F
100
AcDbEntity
  8
0
  6
Continuous
 62
     7
370
    25
100
AcDbLine
 10
-72.1103132698
 20
4646.985212601
 30
0.0
 11
-71.0063131698
 21
4646.985212601
 31
0.0
  0
LINE
  5
264
330
1F
100
AcDbEntity
  8
0
  6
Continuous
 62
     7
370
    25
100
AcDbLine
 10
-72.1103132698
 20
4647.657212701
 30
0.0
 11
-72.1103132698
 21
4646.985212601
 31
0.0
  0
LINE
  5
265
330
1F
100
AcDbEntity
  8
0
  6
Continuous
 62
     7
370
    25
100
AcDbLine
 10
-71.0063131698
 20
4647.657212701
 30
0.0
 11
-72.1103132698
 21
4647.657212701
 31
0.0
  0
LINE
  5
266
330
1F
100
AcDbEntity
  8
0
  6
Continuous
 62
     7
370
    25
100
AcDbLine
 10
-71.0063131698
 20
4646.985212601
 30
0.0
 11
-71.0063131698
 21
4647.657212701
 31
0.0
  0
LINE
  5
267
330
1F
100
AcDbEntity
  8
0
  6
Continuous
 62
     7
370
    25
100
AcDbLine
 10
-68.6783130698
 20
4646.073212701
 30
0.0
 11
-67.1423129698
 21
4646.073212701
 31
0.0
  0
LINE
  5
268
330
1F
100
AcDbEntity
  8
0
  6
Continuous
 62
     7
370
    25
100
AcDbLine
 10
-68.6783130698
 20
4647.609212801
 30
0.0
 11
-68.6783130698
 21
4646.073212701
 31
0.0
  0
LINE
  5
269
330
1F
100
AcDbEntity
  8
0
  6
Continuous
 62
     7
370
    25
100
AcDbLine
 10
-67.1423129698
 20
4647.609212801
 30
0.0
 11
-68.6783130698
 21
4647.609212801
 31
0.0
  0
LINE
  5
26A
330
1F
100
AcDbEntity
  8
0
  6
Continuous
 62
     7
370
    25
100
AcDbLine
 10
-67.1423129698
 20
4646.073212701
 30
0.0
 11
-67.1423129698
 21
4647.609212801
 31
0.0
  0
LINE
  5
26B
330
1F
100
AcDbEntity
  8
0
  6
Continuous
 62
     7
370
    25
100
AcDbLine
 10
-55.4543139698
 20
4647.609212801
 30
0.0
 11
-56.9903120698
 21
4647.609212801
 31
0.0
  0
LINE
  5
26C
330
1F
100
AcDbEntity
  8
0
  6
Continuous
 62
     7
370
    25
100
AcDbLine
 10
-56.9903120698
 20
4646.073212701
 30
0.0
 11
-55.4543139698
 21
4646.073212701
 31
0.0
  0
LINE
  5
26D
330
1F
100
AcDbEntity
  8
0
  6
Continuous
 62
     7
370
    25
100
AcDbLine
 10
-55.4543139698
 20
4646.073212701
 30
0.0
 11
-55.4543139698
 21
4647.609212801
 31
0.0
  0
LINE
  5
26E
330
1F
100
AcDbEntity
  8
0
  6
Continuous
 62
     7
370
    25
100
AcDbLine
 10
-56.9903120698
 20
4647.609212801
 30
0.0
 11
-56.9903120698
 21
4646.073212701
 31
0.0
  0
ARC
  5
26F
330
1F
100
AcDbEntity
  8
0
  6
Continuous
 62
     7
370
    25
100
AcDbCircle
 10
-105.1263222279
 20
4814.3127296072
 30
0.0
 40
3.821653807172363
100
AcDbArc
 50
273.7423527113
 51
93.7423527113
  0
ARC
  5
270
330
1F
100
AcDbEntity
  8
0
  6
Continuous
 62
     7
370
    25
100
AcDbCircle
 10
-105.2614505369
 20
4816.3786141308
 30
0.0
 40
1.751354668253435
100
AcDbArc
 50
93.7423527113
 51
143.7035408639
  0
ARC
  5
271
330
1F
100
AcDbEntity
  8
0
  6
Continuous
 62
     7
370
    25
100
AcDbCircle
 10
-109.5204934803
 20
4819.5067869874
 30
0.0
 40
3.533048061932905
100
AcDbArc
 50
143.7035408638
 51
323.7035408639
  0
ARC
  5
272
330
1F
100
AcDbEntity
  8
0
  6
Continuous
 62
     7
370
    25
100
AcDbCircle
 10
-106.6729808691
 20
4817.415351945
 30
0.0
 40
7.066096123865477
100
AcDbArc
 50
69.7277714225
 51
143.7035408638
  0
ARC
  5
273
330
1F
100
AcDbEntity
  8
0
  6
Continuous
 62
     7
370
    25
100
AcDbCircle
 10
-107.9206972434
 20
4814.0373051983
 30
0.0
 40
10.66720650451492
100
AcDbArc
 50
310.7054431763
 51
69.7277714225
  0
ARC
  5
274
330
1F
100
AcDbEntity
  8
0
  6
Continuous
 62
     7
370
    25
100
AcDbCircle
 10
-60.9322547192
 20
4728.9186472937
 30
0.0
 40
75.34203827317117
100
AcDbArc
 50
176.5529887665
 51
214.1085045166
  0
ARC
  5
275
330
1F
100
AcDbEntity
  8
0
  6
Continuous
 62
     7
370
    25
100
AcDbCircle
 10
-67.6745264333
 20
4728.9186472937
 30
0.0
 40
75.34203827317127
100
AcDbArc
 50
325.8914954834
 51
3.4470112335
  0
ARC
  5
276
330
1F
100
AcDbEntity
  8
0
  6
Continuous
 62
     7
370
    25
100
AcDbCircle
 10
-26.5764015252
 20
4807.1145687186
 30
0.0
 40
6.584596344547927
100
AcDbArc
 50
12.1944626003
 51
303.0102206656
  0
MTEXT
  5
278
330
1F
100
AcDbEntity
  8
0
  6
Continuous
 62
     7
100
AcDbMText
 10
-149.222790895
 20
4630.4066413928
 30
0.0
 40
4.83362
 41
0.0
 71
     1
 72
     1
  1
SOLIDWORKS Educational Product.
  7
SLDTEXTSTYLE0
 73
     1
 44
1.0
  0
MTEXT
  5
279
330
1F
100
AcDbEntity
  8
0
  6
Continuous
 62
     7
100
AcDbMText
 10
-149.222790895
 20
4623.1562113928
 30
0.0
 40
4.83362
 41
0.0
 71
     1
 72
     1
  1
For Instructional Use Only.
  7
SLDTEXTSTYLE0
 73
     1
 44
1.0
  0
ENDSEC
  0
SECTION
  2
OBJECTS
  0
DICTIONARY
  5
C
330
0
100
AcDbDictionary
281
     1
  3
ACAD_GROUP
350
D
  3
ACAD_LAYOUT
350
1A
  3
ACAD_MLINESTYLE
350
17
  3
ACAD_PLOTSETTINGS
350
19
  3
ACAD_PLOTSTYLENAME
350
E
  3
ACAD_SCALELIST
350
47
  0
DICTIONARY
  5
D
102
{ACAD_REACTORS
330
C
102
}
330
C
100
AcDbDictionary
281
     1
  0
DICTIONARY
  5
1A
102
{ACAD_REACTORS
330
C
102
}
330
C
100
AcDbDictionary
281
     1
  3
Layout1
350
1E
  3
Layout2
350
26
  3
Model
350
22
  0
DICTIONARY
  5
17
102
{ACAD_REACTORS
330
C
102
}
330
C
100
AcDbDictionary
281
     1
  3
Standard
350
18
  0
DICTIONARY
  5
19
102
{ACAD_REACTORS
330
C
102
}
330
C
100
AcDbDictionary
281
     1
  0
ACDBDICTIONARYWDFLT
  5
E
102
{ACAD_REACTORS
330
C
102
}
330
C
100
AcDbDictionary
281
     1
  3
Normal
350
F
100
AcDbDictionaryWithDefault
340
F
  0
DICTIONARY
  5
47
102
{ACAD_REACTORS
330
C
102
}
330
C
100
AcDbDictionary
281
     1
  3
A0
350
48
  3
A1
350
49
  3
A2
350
4A
  3
A3
350
4B
  3
A4
350
4C
  3
A5
350
4D
  3
A6
350
4E
  3
A7
350
4F
  3
A8
350
50
  3
A9
350
51
  3
B0
350
52
  3
B1
350
53
  3
B2
350
54
  3
B3
350
55
  3
B4
350
56
  3
B5
350
57
  3
B6
350
58
  3
B7
350
59
  3
B8
350
5A
  3
B9
350
5B
  3
C0
350
5C
  3
C1
350
5D
  3
C2
350
5E
  3
C3
350
5F
  3
C4
350
60
  3
C5
350
61
  3
C6
350
62
  3
C7
350
63
  3
C8
350
64
  3
C9
350
65
  3
D0
350
66
  3
D1
350
67
  3
D2
350
68
  0
LAYOUT
  5
1E
102
{ACAD_REACTORS
330
1A
102
}
330
1A
100
AcDbPlotSettings
  1

  2
none_device
  4

  6

 40
0.0
 41
0.0
 42
0.0
 43
0.0
 44
0.0
 45
0.0
 46
0.0
 47
0.0
 48
0.0
 49
0.0
140
0.0
141
0.0
142
1.0
143
1.0
 70
   688
 72
     1
 73
     0
 74
     5
  7

 75
    16
147
1.0
148
0.0
149
0.0
100
AcDbLayout
  1
Layout1
 70
     1
 71
     1
 10
0.0
 20
0.0
 11
420.0
 21
297.0
 12
0.0
 22
0.0
 32
0.0
 14
1.0000000000E+20
 24
1.0000000000E+20
 34
1.0000000000E+20
 15
-1.0000000000E+20
 25
-1.0000000000E+20
 35
-1.0000000000E+20
146
0.0
 13
0.0
 23
0.0
 33
0.0
 16
1.0
 26
0.0
 36
0.0
 17
0.0
 27
1.0
 37
0.0
 76
     0
330
1B
  0
LAYOUT
  5
26
102
{ACAD_REACTORS
330
1A
102
}
330
1A
100
AcDbPlotSettings
  1

  2
none_device
  4

  6

 40
0.0
 41
0.0
 42
0.0
 43
0.0
 44
0.0
 45
0.0
 46
0.0
 47
0.0
 48
0.0
 49
0.0
140
0.0
141
0.0
142
1.0
143
1.0
 70
   688
 72
     1
 73
     0
 74
     5
  7

 75
    16
147
1.0
148
0.0
149
0.0
100
AcDbLayout
  1
Layout2
 70
     1
 71
     2
 10
0.0
 20
0.0
 11
0.0
 21
0.0
 12
0.0
 22
0.0
 32
0.0
 14
0.0
 24
0.0
 34
0.0
 15
0.0
 25
0.0
 35
0.0
146
0.0
 13
0.0
 23
0.0
 33
0.0
 16
1.0
 26
0.0
 36
0.0
 17
0.0
 27
1.0
 37
0.0
 76
     0
330
23
  0
LAYOUT
  5
22
102
{ACAD_REACTORS
330
1A
102
}
330
1A
100
AcDbPlotSettings
  1

  2
none_device
  4
ANSI_A_(11.00_x_8.50_Inches)
  6

 40
6.35
 41
19.05
 42
6.35000508
 43
19.05000254
 44
279.4
 45
215.9
 46
204.543459937
 47
-5145.6514055559
 48
0.0
 49
0.0
140
0.0
141
0.0
142
0.0435885604
143
1.0
 70
  1696
 72
     0
 73
     0
 74
     0
  7

 75
     0
147
0.0179189148
148
-1300.4909072572
149
0.0
100
AcDbLayout
  1
Model
 70
     1
 71
     0
 10
0.0
 20
0.0
 11
420.0
 21
297.0
 12
0.0
 22
0.0
 32
0.0
 14
-149.222790895
 24
4631.4262077845
 34
0.0
 15
20.6160097425
 25
4824.4814480688
 35
0.0
146
0.0
 13
0.0
 23
0.0
 33
0.0
 16
1.0
 26
0.0
 36
0.0
 17
0.0
 27
1.0
 37
0.0
 76
     0
330
1F
331
29
  0
MLINESTYLE
  5
18
102
{ACAD_REACTORS
330
17
102
}
330
17
100
AcDbMlineStyle
  2
Standard
 70
     0
  3

 62
   256
 51
90.0
 52
90.0
 71
     2
 49
0.5
 62
   256
  6
BYLAYER
 49
-0.5
 62
   256
  6
BYLAYER
  0
ACDBPLACEHOLDER
  5
F
102
{ACAD_REACTORS
330
E
102
}
330
E
  0
SCALE
  5
48
102
{ACAD_REACTORS
330
47
102
}
330
47
100
AcDbScale
 70
     0
300
1:1
140
1.0
141
1.0
290
     1
  0
SCALE
  5
49
102
{ACAD_REACTORS
330
47
102
}
330
47
100
AcDbScale
 70
     0
300
1:2
140
1.0
141
2.0
290
     0
  0
SCALE
  5
4A
102
{ACAD_REACTORS
330
47
102
}
330
47
100
AcDbScale
 70
     0
300
1:4
140
1.0
141
4.0
290
     0
  0
SCALE
  5
4B
102
{ACAD_REACTORS
330
47
102
}
330
47
100
AcDbScale
 70
     0
300
1:5
140
1.0
141
5.0
290
     0
  0
SCALE
  5
4C
102
{ACAD_REACTORS
330
47
102
}
330
47
100
AcDbScale
 70
     0
300
1:8
140
1.0
141
8.0
290
     0
  0
SCALE
  5
4D
102
{ACAD_REACTORS
330
47
102
}
330
47
100
AcDbScale
 70
     0
300
1:10
140
1.0
141
10.0
290
     0
  0
SCALE
  5
4E
102
{ACAD_REACTORS
330
47
102
}
330
47
100
AcDbScale
 70
     0
300
1:16
140
1.0
141
16.0
290
     0
  0
SCALE
  5
4F
102
{ACAD_REACTORS
330
47
102
}
330
47
100
AcDbScale
 70
     0
300
1:20
140
1.0
141
20.0
290
     0
  0
SCALE
  5
50
102
{ACAD_REACTORS
330
47
102
}
330
47
100
AcDbScale
 70
     0
300
1:30
140
1.0
141
30.0
290
     0
  0
SCALE
  5
51
102
{ACAD_REACTORS
330
47
102
}
330
47
100
AcDbScale
 70
     0
300
1:40
140
1.0
141
40.0
290
     0
  0
SCALE
  5
52
102
{ACAD_REACTORS
330
47
102
}
330
47
100
AcDbScale
 70
     0
300
1:50
140
1.0
141
50.0
290
     0
  0
SCALE
  5
53
102
{ACAD_REACTORS
330
47
102
}
330
47
100
AcDbScale
 70
     0
300
1:100
140
1.0
141
100.0
290
     0
  0
SCALE
  5
54
102
{ACAD_REACTORS
330
47
102
}
330
47
100
AcDbScale
 70
     0
300
2:1
140
2.0
141
1.0
290
     0
  0
SCALE
  5
55
102
{ACAD_REACTORS
330
47
102
}
330
47
100
AcDbScale
 70
     0
300
4:1
140
4.0
141
1.0
290
     0
  0
SCALE
  5
56
102
{ACAD_REACTORS
330
47
102
}
330
47
100
AcDbScale
 70
     0
300
8:1
140
8.0
141
1.0
290
     0
  0
SCALE
  5
57
102
{ACAD_REACTORS
330
47
102
}
330
47
100
AcDbScale
 70
     0
300
10:1
140
10.0
141
1.0
290
     0
  0
SCALE
  5
58
102
{ACAD_REACTORS
330
47
102
}
330
47
100
AcDbScale
 70
     0
300
100:1
140
100.0
141
1.0
290
     0
  0
SCALE
  5
59
102
{ACAD_REACTORS
330
47
102
}
330
47
100
AcDbScale
 70
     0
300
1/128" = 1'-0"
140
0.0078125
141
12.0
290
     0
  0
SCALE
  5
5A
102
{ACAD_REACTORS
330
47
102
}
330
47
100
AcDbScale
 70
     0
300
1/64" = 1'-0"
140
0.015625
141
12.0
290
     0
  0
SCALE
  5
5B
102
{ACAD_REACTORS
330
47
102
}
330
47
100
AcDbScale
 70
     0
300
1/32" = 1'-0"
140
0.03125
141
12.0
290
     0
  0
SCALE
  5
5C
102
{ACAD_REACTORS
330
47
102
}
330
47
100
AcDbScale
 70
     0
300
1/16" = 1'-0"
140
0.0625
141
12.0
290
     0
  0
SCALE
  5
5D
102
{ACAD_REACTORS
330
47
102
}
330
47
100
AcDbScale
 70
     0
300
3/32" = 1'-0"
140
0.09375
141
12.0
290
     0
  0
SCALE
  5
5E
102
{ACAD_REACTORS
330
47
102
}
330
47
100
AcDbScale
 70
     0
300
1/8" = 1'-0"
140
0.125
141
12.0
290
     0
  0
SCALE
  5
5F
102
{ACAD_REACTORS
330
47
102
}
330
47
100
AcDbScale
 70
     0
300
3/16" = 1'-0"
140
0.1875
141
12.0
290
     0
  0
SCALE
  5
60
102
{ACAD_REACTORS
330
47
102
}
330
47
100
AcDbScale
 70
     0
300
1/4" = 1'-0"
140
0.25
141
12.0
290
     0
  0
SCALE
  5
61
102
{ACAD_REACTORS
330
47
102
}
330
47
100
AcDbScale
 70
     0
300
3/8" = 1'-0"
140
0.375
141
12.0
290
     0
  0
SCALE
  5
62
102
{ACAD_REACTORS
330
47
102
}
330
47
100
AcDbScale
 70
     0
300
1/2" = 1'-0"
140
0.5
141
12.0
290
     0
  0
SCALE
  5
63
102
{ACAD_REACTORS
330
47
102
}
330
47
100
AcDbScale
 70
     0
300
3/4" = 1'-0"
140
0.75
141
12.0
290
     0
  0
SCALE
  5
64
102
{ACAD_REACTORS
330
47
102
}
330
47
100
AcDbScale
 70
     0
300
1" = 1'-0"
140
1.0
141
12.0
290
     0
  0
SCALE
  5
65
102
{ACAD_REACTORS
330
47
102
}
330
47
100
AcDbScale
 70
     0
300
1-1/2" = 1'-0"
140
1.5
141
12.0
290
     0
  0
SCALE
  5
66
102
{ACAD_REACTORS
330
47
102
}
330
47
100
AcDbScale
 70
     0
300
3" = 1'-0"
140
3.0
141
12.0
290
     0
  0
SCALE
  5
67
102
{ACAD_REACTORS
330
47
102
}
330
47
100
AcDbScale
 70
     0
300
6" = 1'-0"
140
6.0
141
12.0
290
     0
  0
SCALE
  5
68
102
{ACAD_REACTORS
330
47
102
}
330
47
100
AcDbScale
 70
     0
300
1'-0" = 1'-0"
140
12.0
141
12.0
290
     0
  0
ENDSEC
  0
EOF
